<?xml version="1.0" encoding="utf-8"?>
<!-- Generator: Adobe Illustrator 27.5.0, SVG Export Plug-In . SVG Version: 6.00 Build 0)  -->
<svg version="1.1" id="Layer_1" xmlns="http://www.w3.org/2000/svg" xmlns:xlink="http://www.w3.org/1999/xlink" x="0px" y="0px"
	 viewBox="0 0 3000 2000" style="enable-background:new 0 0 3000 2000;" xml:space="preserve">
<g>
	<rect style="fill:#FFFFFF;" width="3000" height="2000"/>
	<path style="fill:#EBF2F9;" d="M511.421,1738.056c0,0-319.392-229.365-173.846-528.698s408.987,157.54,592.616-264.957
		s224.763-745.933,713.606-612.516s288.458,483.551,544.304,518.717c255.845,35.166,457.992,161.966,340.747,436.151
		c-117.245,274.185,173.846,454.243,173.846,454.243L511.421,1738.056z"/>
	<polygon style="fill:#F1A34F;" points="2687.728,350.605 2601.784,359.342 2628.589,381.199 2413.397,639.419 2283.264,474.663 
		2134.951,640.879 2075.58,548.3 1959.454,666.111 1996.869,703.526 2066.475,633.92 2129.816,727.991 2282.587,555.556 
		2410.1,722.175 2669.599,414.64 2696.465,436.548 	"/>
	<g>
		<g>
			<path style="fill:#699DEE;" d="M2439.069,1518.35c0,0-35.462-41.371-2.187-67.649c0,0,24.306-14.716,44.124-13.52
				c0,0-28.083,47.09-18.997,51.774c9.085,4.684,27.508-54.728,27.508-54.728s55.311-5.362,73.104,3.192
				c0,0-47.283,38.694-37.325,40.998c9.959,2.302,61.031-35.676,61.031-35.676s51.479,8.76,48.733,40.164
				c-2.744,31.404-20.482,41.1-28.279,40.265c-7.796-0.835-53.401-18.244-54.394-11.856c-0.993,6.389,26.458,27.264,45.681,28.241
				c0,0-36.293,40.025-60.414,28.474c-24.121-11.552-26.18-29.862-41.216-36.73s-27.871-6.85-21.663,0.154
				c6.207,7.004,33.42,13.811,42.018,29.021c8.599,15.21,16.314,25.468-8.642,21.714c-24.956-3.755-65.521-22.016-67.302-42.926
				S2439.069,1518.35,2439.069,1518.35z"/>
			<g>
				<path style="fill:#699DEE;" d="M2609.765,1483.752c0,0-139.819-5.389-170.697,34.598c0,0-6.829,20.452-27.842,39.075
					l-3.276,8.926c0,0,24.229-25.547,32.898-27.091C2440.849,1539.26,2427.291,1489.721,2609.765,1483.752z"/>
				<path style="fill:#699DEE;" d="M2411.227,1557.425c0,0-30.011,22.194-32.096,61.851l5.447,0.487c0,0,9.584-41.005,26.909-57.04
					C2428.812,1546.688,2411.227,1557.425,2411.227,1557.425z"/>
			</g>
		</g>
		<g>
			<path style="fill:#699DEE;" d="M2315.083,1466.321c0,0,56.41-31.589,30.085-74.461c0,0-21.059-26.324-43.624-33.094
				c0,0,12.034,63.932,0,65.436c-12.034,1.504-8.273-72.205-8.273-72.205s-59.127-11.833-82.443-9.577
				c0,0,36.563,45.679,24.528,44.175c-12.034-1.505-53.401-64.683-53.401-64.683s-60.923-11.282-70.701,24.82
				c-9.778,36.103,6.018,54.154,15.043,56.411c9.025,2.256,66.939,1.503,65.436,9.025c-1.504,7.522-40.615,19.556-62.428,12.786
				c0,0,24.069,59.419,55.658,56.41c31.59-3.007,41.368-22.563,60.923-24.067c19.556-1.505,33.846,3.76,24.068,9.025
				c-9.777,5.265-42.871,1.726-58.666,15.153c-15.795,13.429-28.581,21.701,0.752,27.719c29.333,6.018,81.982,2.257,92.512-20.308
				C2315.083,1466.321,2315.083,1466.321,2315.083,1466.321z"/>
			<g>
				<path style="fill:#699DEE;" d="M2139.083,1358.014c0,0,157.948,51.145,176,108.307c0,0-0.752,25.573,15.042,54.906v11.283
					c0,0-16.547-38.359-25.573-43.624C2304.553,1488.885,2339.903,1439.245,2139.083,1358.014z"/>
				<path style="fill:#699DEE;" d="M2330.126,1521.227c0,0,24.358,36.989,10.472,82.016l-6.267-1.684c0,0,6.083-49.593-6.661-74.536
					S2330.126,1521.227,2330.126,1521.227z"/>
			</g>
		</g>
		<g>
			<path style="fill:#AFCDFB;" d="M2404.827,1422.755c0,0-74.359-41.641-39.657-98.154c0,0,27.76-34.701,57.504-43.624
				c0,0-15.864,84.273,0,86.256c15.863,1.983,10.906-95.18,10.906-95.18s78.325-37.675,109.06-34.7c0,0-48.581,82.291-32.718,80.308
				c15.863-1.983,70.393-85.265,70.393-85.265s80.308-14.872,93.197,32.718c12.888,47.59-7.932,71.385-19.829,74.359
				c-11.897,2.974-88.24,1.983-86.257,11.897c1.983,9.915,53.538,25.778,82.291,16.854c0,0-31.727,78.325-73.368,74.36
				c-41.64-3.966-54.529-29.744-80.308-31.728c-25.777-1.982-44.615,4.958-31.726,11.898c12.889,6.94,56.513,2.275,77.334,19.975
				c20.82,17.699,37.675,28.605-0.992,36.537c-38.666,7.932-108.068,2.974-121.948-26.769
				C2404.827,1422.755,2404.827,1422.755,2404.827,1422.755z"/>
			<g>
				<path style="fill:#699DEE;" d="M2636.827,1279.986c0,0-208.205,67.419-232,142.769c0,0,0.992,33.71-19.828,72.376v14.872
					c0,0,21.811-50.564,33.709-57.504C2418.708,1452.499,2372.109,1387.063,2636.827,1279.986z"/>
				<path style="fill:#699DEE;" d="M2384.998,1495.132c0,0-32.109,48.758-13.804,108.112l8.26-2.219c0,0-8.018-65.374,8.781-98.253
					C2405.034,1469.891,2384.998,1495.132,2384.998,1495.132z"/>
			</g>
		</g>
		<path style="fill:#F1A34F;" d="M2402.321,1731.952c80.444,0,145.657-65.214,145.657-145.657h-291.315
			C2256.664,1666.739,2321.877,1731.952,2402.321,1731.952z"/>
		<path style="fill:#FFB973;" d="M2438.163,1730.837c-5.924,0.741-11.965,1.115-18.097,1.115
			c-80.443,0-145.65-65.216-145.65-145.659h36.186C2310.602,1660.612,2366.258,1721.926,2438.163,1730.837z"/>
		<path style="fill:#F1A34F;" d="M2532.02,1721.394h-259.397c-9.925,0-17.97,8.046-17.97,17.969h295.338
			C2549.99,1729.439,2541.945,1721.394,2532.02,1721.394z"/>
		<rect x="2251.875" y="1586.293" style="fill:#D86713;" width="299.417" height="4.469"/>
	</g>
	<g>
		<path style="fill:#4A75CB;" d="M1369.014,947.539l-62.949,748.481c0,0-6.596,45.371,27.153,45.452
			c55.49,0.132,276.191,0,276.191,0s-41.764-9.445-41.257-30.695c0.596-25.048,73.575-770.322,73.575-770.322L1369.014,947.539z"/>
		<path style="fill:#AFCDFB;" d="M1627.316,1727.893c-10.914,0.033-221.711,0.693-275.749,0
			c-23.55-0.293-27.68-20.939-27.875-34.301c-0.097-6.406,0.716-11.142,0.716-11.142l1.636-19.454l4.173-49.584l3.685-43.807
			l4.736-56.292l3.988-47.513l44.728-531.848l272.714-7.077c0,0-30.736,311.893-52.477,538.925
			c-2.428,25.296-4.736,49.55-6.871,72.191c-0.694,7.229-1.355,14.295-2.005,21.177c-2.016,21.481-3.858,41.206-5.462,58.622
			c-0.845,9.18-1.625,17.709-2.33,25.523c-2.774,30.617-4.4,50.169-4.422,53.886c-0.011,2.168,0.173,4.184,0.531,6.059
			C1591.508,1727.113,1623.219,1727.893,1627.316,1727.893z"/>
		<polygon style="fill:#AFCDFB;" points="2016.014,540.244 706.717,540.244 860.05,1156.151 881.044,1240.502 952.459,1527.374 
			2279.238,1527.374 		"/>
		<polygon style="fill:#4A75CB;" points="706.715,540.243 685.464,547.326 924.208,1548.802 952.461,1527.377 		"/>
		<polygon style="fill:#4A75CB;" points="924.208,1548.802 2242.821,1548.802 2279.234,1527.377 952.461,1527.377 		"/>
		
			<rect x="1387.266" y="1728.192" transform="matrix(-1 -1.224647e-16 1.224647e-16 -1 3060.031 3469.9509)" style="fill:#4A75CB;" width="285.499" height="13.568"/>
		<polygon style="fill:#4A75CB;" points="1600.189,1548.797 1598.714,1559.168 1330.217,1613.412 1333.901,1569.605 
			1335.657,1548.797 		"/>
		<path style="fill:#699DEE;" d="M1627.316,1727.893c-10.914,0.033-221.711,0.693-275.749,0
			c-23.55-0.293-27.68-20.939-27.875-34.301l267.23-50.278c-2.774,30.617-4.4,50.169-4.422,53.886
			c-0.011,2.168,0.173,4.184,0.531,6.059C1591.508,1727.113,1623.219,1727.893,1627.316,1727.893z"/>
		<polygon style="opacity:0.2;fill:#699DEE;" points="1518.048,1333.449 952.46,1527.376 904.159,1333.334 		"/>
		<polygon style="fill:#699DEE;" points="2016.012,540.243 706.715,540.243 904.044,1333.334 2227.563,1333.585 		"/>
	</g>
	<path style="fill:#4A75CB;" d="M1651.022,1433.874c-3.782-19.456-22.62-35.228-42.077-35.228c-19.456,0-32.163,15.772-28.38,35.228
		c3.782,19.457,22.62,35.229,42.076,35.229C1642.098,1469.103,1654.804,1453.331,1651.022,1433.874z"/>
	<polygon style="fill:#FFFFFF;" points="2166.698,1299.207 940.797,1299.207 801.966,746.152 791.325,703.739 782.241,667.564 
		760.951,582.738 1969.181,582.738 1992.563,667.564 2002.537,703.739 2014.227,746.152 	"/>
	<polygon style="fill:#AFCDFB;" points="1969.181,582.738 760.951,582.738 782.241,667.564 1992.563,667.564 	"/>
	<g>
		<path style="fill:#E9F3FE;" d="M818.894,610.47c-5.856,0-9.42,4.747-7.96,10.604c1.46,5.856,7.391,10.604,13.248,10.604
			c5.856,0,9.42-4.747,7.96-10.604C830.681,615.217,824.75,610.47,818.894,610.47z"/>
		<path style="fill:#E9F3FE;" d="M854.126,610.47c-5.856,0-9.42,4.747-7.96,10.604c1.46,5.856,7.391,10.604,13.248,10.604
			c5.856,0,9.42-4.747,7.96-10.604C865.914,615.217,859.983,610.47,854.126,610.47z"/>
		<path style="fill:#E9F3FE;" d="M905.313,621.073c-1.46-5.856-7.391-10.604-13.248-10.604c-5.856,0-9.42,4.747-7.96,10.604
			c1.46,5.856,7.391,10.604,13.248,10.604C903.209,631.677,906.773,626.93,905.313,621.073z"/>
	</g>
	<g>
		<polygon style="fill:#E49963;" points="2385.142,1645.514 2372.381,1699.258 2353.267,1699.15 2352.566,1645.514 		"/>
		<polygon style="fill:#E49963;" points="2224.364,1647.805 2188.055,1699.258 2173.904,1681.089 2195.757,1640.731 		"/>
		<path style="fill:#163560;" d="M2318.759,939.27c6.598-3.75,14.506-4.16,20.037-3.833c-1.424-1.47-4.226-2.006-4.226-2.006
			c3.43-0.51,11.085,2.892,11.085,2.892c47.708-18.383,55.207,51.863,54.204,68.183c-0.995,16.318,16.032,21.648,40.853,34.506
			c47.358,24.534,51.518,57.386,51.518,57.386c-0.368,0.218-0.754,0.466-1.163,0.748c-2.35-3.981-7.187-11.456-11.266-12.584
			c0.154,0.363,4.82,10.292,6.561,15.982c-13.971,10.628-40.108,34.177-58.324,50.874c0.081-3.263-0.049-7.897-1.241-10.343
			l-2.25,13.552c-9.747,8.961-16.469,15.265-16.469,15.265c1.204-13.188-59.646-82.784-91.393-103.628
			c-7.729-11.377-10.475-31.477-10.681-33.059c1.334,15.937,4.06,24.876,6.497,29.909
			C2285.619,1038.373,2301.269,949.208,2318.759,939.27z"/>
		<path style="fill:#E49963;" d="M2318.565,1067.302c-0.159,0.071,15.328,8.113,26.978,4.926
			c10.958-2.988,18.118-17.196,17.967-17.228c-4.641-0.921-5.979-7.298-5.88-34.701l-2.098,0.413l-35.274,6.985
			c0,0,0.803,11.101,0.827,21.558C2321.107,1058.036,2320.575,1066.364,2318.565,1067.302z"/>
		<path style="fill:#E37970;" d="M2358.455,950.772c0,0-17.401-18.525-39.247-0.948
			C2319.208,949.824,2331.921,947.626,2358.455,950.772z"/>
		<path style="fill:#D68D5D;" d="M2320.257,1027.697c0,0,0.803,11.101,0.827,21.558c19.739-0.556,30.172-18.563,34.447-28.543
			L2320.257,1027.697z"/>
		<path style="fill:#163560;" d="M2359.174,1016.872c0,0,10.344-16.344,12.826-30.32c1.773-9.978-3.309-46.962-40.475-41.635
			c0,0-10.794,1.064-20.941,7.916c-8.069,5.45-19.715,17.216-6.694,49.489l3.382,10.903L2359.174,1016.872z"/>
		<path style="fill:#2B478B;" d="M2179.666,1666.985l18.698,0.572l20.239,0.62c0,0,46.748-52.048,72.971-135.485
			c0.612-1.939,1.256-3.901,1.939-5.888c14.351-41.846,44.102-94.37,59.78-141.914c2.495-7.573,4.736-14.7,6.746-21.447
			c0.644-2.161,1.271-4.283,1.867-6.373c11.554-40.145,14.9-66.502,17.983-94.664l-113.211,0.906
			C2266.678,1263.312,2248.402,1455.612,2179.666,1666.985z"/>
		<path style="fill:#E7F1FD;" d="M2282.527,1198.259c0.285,53.873-7.903,76.986-7.903,76.986s48.473,24.627,106.083,6.5
			c0.679-0.214,47.702-10.946,47.702-10.946c-0.965-2.181-9.538-38.487-10.478-40.487c-12.163-26.121-21.399-37.574-22.842-45.604
			c-2.676-14.992-2.735-30.504-1.401-45.135c3.515-38.73,13.97-70.88,13.97-70.88c-15.697-3.572-30.397-9.847-46.735-15.974
			c-3.758,4.679-15.246,9.576-25.212,9.352c-11.475-0.253-15.197-5.166-14.601-10.529c-12.23,6.805-21.987,13.234-21.987,13.234
			c-10.394,18.054-31.473,35.585-32.999,63.28C2265.746,1134.866,2282.519,1196.75,2282.527,1198.259z"/>
		<path style="fill:#A8D29F;" d="M2216.799,1118.226c16.619-19.414,59.679-61.517,104.113-66.683l-38.343,74.697
			c0,0-2.156,12.803-13.509,20.263c-27.812,18.277-63.173,26.356-63.173,26.356s-23.948-10.447-56.684-34.434
			c-10.275-7.53-28.331-36.247-28.331-36.247l4.87-16.296c0,0,30.655,17.139,41.605,22.082c6.241,2.818,20.608,9.544,30.73,14.299
			C2204.516,1125.286,2212.172,1123.63,2216.799,1118.226z"/>
		<path style="fill:#E49963;" d="M2313.665,1037.599c0,0,46.702,0.77,46.733-28.32c0.032-29.091,6.082-48.583-23.735-50.305
			c-29.816-1.722-35.622,9.372-37.994,19.079C2296.297,987.761,2301.518,1036.65,2313.665,1037.599z"/>
		<path style="fill:#163560;" d="M2315.394,958.262c0,0,12.787,34.129,32.41,39.175c19.624,5.046,28.135-0.211,28.135-0.211
			s-15.052-11.958-18.176-32.831C2357.764,964.395,2325.039,942.018,2315.394,958.262z"/>
		<path style="fill:#163560;" d="M2318.563,961.032c0,0-9.549,7.62-11.877,15.027c-2.328,7.408-3.375,22.658-7.82,22.139
			c0,0-9.634-23.197,1.193-36.32C2311.539,947.964,2318.563,961.032,2318.563,961.032z"/>
		<path style="fill:#E49963;" d="M2125.741,1085.881c0,0-6.584-23.728-32.669-20.375c-2.994,0.938-11.741,4.426-6.15,13.791
			c4.121,6.904,5.906,3.342,12.389,12.619c6.483,9.277,13.519,11.372,21.56,10.262L2125.741,1085.881z"/>
		<path style="fill:#E49963;" d="M2373.023,1696.254c0,0-1.539,10.645,2.434,22.035c0,0,3.129,14.253-10.91,14.518
			c-14.038,0.265-17.482-1.059-15.892-9.801c1.589-8.74,4.613-23.857,4.613-23.857L2373.023,1696.254z"/>
		<path style="fill:#82B378;" d="M2347.329,1738.896c0,0,0.3,0.185,0.882,0.468h27.479c0.529-0.282,0.776-0.468,0.776-0.468
			c1.587-7.152-1.006-20.61-1.006-20.61c-15.9,14.569-25.848-0.362-25.848-0.362
			C2347.028,1724.151,2347.329,1738.896,2347.329,1738.896z"/>
		<path style="fill:#E49963;" d="M2140.077,1724.435c0,0,25.881-28.728,33.827-43.346l19.246,9.86l-43.021,40.401l-10.066-1.325
			L2140.077,1724.435z"/>
		<path style="fill:#82B378;" d="M2124.017,1739.363h35.417c3.413-2.549,6.596-8.448,10.556-16.368
			c2.108-4.223,6.852-6.552,11.72-7.83v23.925h7.346l6.958-25.433c4.577-8.422,0.362-16.058-2.866-22.708
			c-3.748-0.009-13.837,2.558-32.956,24.102c-6.288,7.073-13.228,9.604-20.116,9.384c-0.097,0.062-0.194,0.115-0.282,0.15
			C2128.259,1729.769,2124.961,1736.215,2124.017,1739.363z"/>
		<path style="fill:#A8D29F;" d="M2321.11,1051.542c0,0-27.02,66.75-27.815,80.259c-0.795,13.508-3.178,220.907-3.178,220.907
			s1.589,9.536-16.687,5.563c-18.277-3.973-23.044-7.947-23.044-7.947s17.482-127.935,12.714-172.434
			c-4.768-44.5,36.553-117.076,36.553-117.076L2321.11,1051.542z"/>
		<path style="fill:#233862;" d="M2198.363,1667.557l20.239,0.62c0,0,46.748-52.048,72.971-135.485
			c0.612-1.939,1.256-3.901,1.939-5.888c14.351-41.846,44.102-94.37,59.78-141.914c2.495-7.573,4.736-14.7,6.746-21.447
			c0.644-2.161,1.271-4.283,1.867-6.373l-16.671-12.65c0,0-50.054,81.052-65.549,157.329
			C2266.225,1568.005,2212.317,1647.731,2198.363,1667.557z"/>
		<path style="fill:#163560;" d="M2251.507,1165.503l0.982,3.023l52.396-17.031c0,0,0.691-0.809,0.332-1.865
			c-0.397-1.167-1.314-1.157-1.314-1.157L2251.507,1165.503z"/>
		<path style="fill:#2B478B;" d="M2343.495,1508.853c-0.286,37.094,1.589,122.374,6.42,157.679h17.927
			c9.909,0,14.852-0.143,14.852-0.143c12.118-61.386,20.74-112.179,27.017-155.947c5.149-35.918,9.727-66.71,13.247-93.218
			c3.544-26.676,6.007-49.014,6.889-67.885c0.135-2.972,0.239-5.865,0.294-8.67c0.056-2.82,0.072-5.563,0.048-8.224l-97.819-9.535
			C2333.602,1387.902,2343.654,1487.295,2343.495,1508.853z"/>
		<path style="fill:#233862;" d="M2367.842,1666.532c9.909,0,14.852-0.143,14.852-0.143c12.118-61.386,20.74-112.179,27.017-155.947
			c5.149-35.918,9.727-66.71,13.247-93.218c3.544-26.676,6.007-49.014,6.889-67.885l-35.893,21.113c0,0,22.909,8.082,14.168,69.269
			C2399.381,1500.906,2380.008,1657.87,2367.842,1666.532z"/>
		<path style="fill:#A8D29F;" d="M2363.223,1348.736c0,0,6.889,24.896,30.728,21.717c23.839-3.179,57.738-17.482,57.738-17.482
			s-10.188-32.19-22.854-74.481c-15.336-51.198-34.32-117.2-43.268-158.831c-2.511-11.665-4.227-21.407-4.863-28.384l-19.779-38.372
			c0,0-29.489,66.184-31.078,82.871C2328.259,1152.463,2363.223,1348.736,2363.223,1348.736z"/>
		<path style="fill:#E49963;" d="M2387.026,1133.288l-26.103-80.385c0.071,0.033,32.968,9.789,49.517,18.148
			c0,0,10.343,13.335,16.743,44.101c0,0,6.761,73.862-8.337,100.88c0,0-47.678,9.535-123.962-16.688v-17.482
			c0,0,83.436,4.371,100.521,6.357L2387.026,1133.288z"/>
		<path style="fill:#82B378;" d="M2364.28,1170.738c1.065,27.018,7.422,79.464,64.103,107.537c0.151,0.072,0.302,0.152,0.453,0.215
			c-15.336-51.198-34.32-117.2-43.268-158.831C2375.158,1135.218,2363.7,1155.863,2364.28,1170.738z"/>
		<path style="fill:#A8D29F;" d="M2360.923,1052.903c0,0,48.388,3.409,60.043,29.367c11.655,25.958,15.363,112.308,0.53,137.736
			c0,0-20.422,5.816-56.541-0.938c-0.443-0.083-0.888-0.168-1.335-0.254c0,0-11.522-28.209-1.192-33.772
			c0,0,30.461,1.589,27.282-8.476C2386.532,1166.501,2360.923,1052.903,2360.923,1052.903z"/>
		<path style="fill:#E49963;" d="M2303.438,1186.513c0,0-6.648-8.056-8.064-16.28c-1.417-8.225-5.816-14.324-17.289-15.831
			c-11.473-1.508-16.405-1.671-16.376,1.563c0.029,3.234,9.374,25.812,25.836,39.296
			C2304.008,1208.744,2303.438,1186.513,2303.438,1186.513z"/>
		<polygon style="fill:#163560;" points="2247.739,1168.42 2251.507,1165.503 2252.489,1168.526 		"/>
	</g>
	<path style="fill:#163560;" d="M2109.531,1089.778c-0.391,0-0.786-0.103-1.144-0.321l-306.014-186.078
		c-1.04-0.632-1.371-1.989-0.738-3.029c0.633-1.042,1.992-1.369,3.029-0.738l306.014,186.078c1.04,0.632,1.371,1.988,0.738,3.029
		C2111.001,1089.402,2110.275,1089.778,2109.531,1089.778z"/>
	<g>
		<g>
			<path style="fill:#82B378;" d="M1149.917,821.372c-6.483,5.494-19.601,15.801-24.838,20.181l13.272,165.985l-136.609-61.064
				l-24.838,20.181c-3.303,13.081-5.064,26.776-5.064,40.883c0,91.961,74.55,166.511,166.511,166.511s166.511-74.55,166.511-166.511
				C1304.862,915.577,1241.879,821.372,1149.917,821.372z"/>
			<path style="fill:#AA413E;" d="M1096.54,807.399c-71.929,5.673-130.996,57.051-148.175,125.102l161.447,40.883l24.838-20.181
				L1096.54,807.399z"/>
		</g>
		<g>
			<path style="fill:#A8D29F;" d="M1163.189,820.846c-4.468,0-8.893,0.181-13.272,0.526l13.272,165.985l-161.447-40.883
				c-3.302,13.082-5.064,26.776-5.064,40.883c0,91.961,74.55,166.511,166.511,166.511c91.962,0,166.511-74.55,166.511-166.511
				C1329.701,895.396,1255.151,820.846,1163.189,820.846z"/>
			<path style="fill:#C65447;" d="M1121.378,787.218c-71.929,5.673-130.996,57.051-148.175,125.102l161.447,40.883L1121.378,787.218
				z"/>
		</g>
	</g>
	<path style="fill:#163560;" d="M1101.537,850.787c-0.564,0-1.128-0.215-1.559-0.646c-0.861-0.861-0.861-2.256,0-3.118
		l99.417-99.417h639.398c1.218,0,2.205,0.987,2.205,2.205c0,1.218-0.987,2.205-2.205,2.205h-637.572l-98.125,98.125
		C1102.665,850.572,1102.101,850.787,1101.537,850.787z"/>
	<path style="fill:#163560;" d="M1295.552,1036.013c-0.564,0-1.128-0.215-1.559-0.646c-0.861-0.861-0.861-2.256,0-3.118
		l107.026-107.026h471.286c1.218,0,2.205,0.987,2.205,2.205c0,1.218-0.987,2.205-2.205,2.205h-469.46l-105.734,105.734
		C1296.68,1035.798,1296.116,1036.013,1295.552,1036.013z"/>
	<polygon style="fill:#AFCDFB;" points="1852.022,731.292 1199.426,731.292 1186.198,711.008 1838.793,711.008 	"/>
	<polygon style="fill:#AFCDFB;" points="1872.305,911.637 1400.496,911.637 1387.268,891.354 1859.077,891.354 	"/>
	<polygon style="fill:#AFCDFB;" points="1728.65,1278.49 1554.802,1278.49 1471.047,980.634 1644.896,980.634 	"/>
	<polygon style="fill:#AFCDFB;" points="1946.774,1278.49 1772.925,1278.49 1689.17,980.634 1863.019,980.634 	"/>
	<g>
		<path style="fill:#AA413E;" d="M1816.546,1009.306c0,0,59.118,66.346,61.958,91.724c2.839,25.378-28.147,65.079-28.147,65.079
			L1816.546,1009.306z"/>
		<path style="fill:#163560;" d="M1791.212,1707.386c0,0-1.257,22.356-4.898,31.977h-73.92c1.249-3.201,4.154-7.311,10.892-8.607
			c11.58-2.231,30.954-11.192,37.965-28.053C1768.629,1684.969,1791.212,1707.386,1791.212,1707.386z"/>
		<path style="fill:#163560;" d="M1879.417,1707.386c0,0-1.257,22.356-4.89,31.977h-73.92c1.24-3.201,4.145-7.311,10.892-8.607
			c11.572-2.231,30.954-11.192,37.964-28.053C1856.841,1684.969,1879.417,1707.386,1879.417,1707.386z"/>
		<path style="fill:#163560;" d="M1747.35,1322.853c0,0,10.358,73.002,48.997,202.593s43.905,185.708,43.905,185.708l41.451-1.281
			c0,0,0.353-141.627-17.454-206.794c-17.807-65.167-3.843-234.932-3.843-234.932L1747.35,1322.853z"/>
		<path style="fill:#1C468A;" d="M1727.179,1272.147c0,0-1.467,110.01,15.805,245.083s11.417,192.409,11.417,192.409l41.367,1.516
			c0,0,24.722-135.123,17.634-202.73c-7.088-67.607,33.853-231.99,33.853-231.99L1727.179,1272.147z"/>
		<path style="fill:#FFB27D;" d="M1807.26,1014.709l-22.041,15.925l-31.853-6.542c0.44-2.834,2.544-14.579,4.458-25.216
			c0.116-0.628,0.231-1.255,0.339-1.868c1.64-9.051,3.057-16.827,3.057-16.827l29.751-14.466l11.092-5.393
			c-0.029,0.19-0.86,10.046-0.975,11.484C1799.008,997.353,1807.26,1014.709,1807.26,1014.709z"/>
		<path style="fill:#C65447;" d="M1863.151,1285.728c-6.397,32.16-112.863,35.973-140.306,6.781
			c-3.121-3.328-3.275-18.808-2.098-39.681c2.303-40.782,9.698-102.126,9.986-133.469c0.141-15.136,2.028-30.616,4.542-44.673
			c5.348-29.961,13.504-53.471,13.504-53.471s52.002-18.526,61.732-15.375C1857.387,1021.018,1869.548,1253.568,1863.151,1285.728z"
			/>
		<path style="fill:#AA413E;" d="M1720.747,1252.828c2.303-40.782,9.698-102.126,9.986-133.469
			c0.141-15.136,2.028-30.616,4.542-44.673l31.281-6.084C1766.556,1068.602,1797.14,1206.265,1720.747,1252.828z"/>
		<path style="fill:#FFB27D;" d="M1737.686,1195.984c0,0,2.132,5.617-2.346,9.387c-4.477,3.771-7.381,9.881-6.356,14.346
			c1.025,4.465,10.848,11.748,14.253,10.573c3.405-1.174,10.335-7.055,9.588-9.41c-0.746-2.355,4.662-20.667-3.64-27.717
			C1740.885,1186.115,1737.686,1195.984,1737.686,1195.984z"/>
		<path style="fill:#C65447;" d="M1772.665,1012.964c0,0-30.508,6.291-54.816,45.768s-40.301,68.828-35.823,83.056
			c4.478,14.228,45.295,63.574,52.332,63.574c7.037,0,18.393-5.639,19.033-18.328c0,0-28.738-47.464-23.077-54.573
			c2.419-3.038,37.309-34.251,42.29-20.152C1780.845,1135.637,1772.665,1012.964,1772.665,1012.964z"/>
		<path style="fill:#FCA56B;" d="M1798.856,972.256c-6.533,12.196-30.878,22.742-41.031,26.619c0.116-0.628,0.231-1.255,0.339-1.868
			c1.64-9.051,3.057-16.827,3.057-16.827l29.751-14.466C1797.548,965.615,1801.552,967.237,1798.856,972.256z"/>
		<path style="fill:#FFB27D;" d="M1750.007,978.187c0,0,47.923,16.474,56.774-16.572c8.85-33.046,20.996-53.175-9.227-65.091
			c-30.224-11.916-39.573-1.248-44.961,8.99C1747.204,915.752,1737.769,973.049,1750.007,978.187z"/>
		<path style="fill:#163560;" d="M1754.474,902.33c0,0,3.056,38.455,10.273,36.786c7.216-1.669,13.761-2.907,12.705,8.685
			c-1.057,11.592-11.064,24.977,11.177,27.028c22.24,2.05,54.212-61.156,48.102-73.123
			C1819.103,867.174,1728.995,860.206,1754.474,902.33z"/>
		<path style="fill:#AA413E;" d="M1761.525,1006.674c0.618-0.287,38.358-12.56,42.458-11.068c4.1,1.492,6.527,10.233,6.527,10.233
			l-61.73,15.38C1748.78,1021.219,1753.639,1010.333,1761.525,1006.674z"/>
	</g>
	<g>
		<polygon style="fill:#C67022;" points="305.797,1739.363 946.046,1739.363 1080,1190.625 439.75,1190.625 		"/>
		<polygon style="fill:#F1A34F;" points="1214.193,1739.363 573.944,1739.363 439.991,1190.625 1080.24,1190.625 		"/>
		<polygon style="fill:#FFFFFF;" points="1170.313,1708.262 602.64,1708.262 483.871,1221.726 1051.544,1221.726 		"/>
		<polygon style="fill:#AA5D17;" points="305.797,1739.363 441.784,1713.271 573.944,1739.363 		"/>
	</g>
	<path style="fill:#1C468A;" d="M553.176,1133.264c-32.104,0-58.308,25.668-59.21,57.558h23.701
		c0.888-18.819,16.474-33.857,35.509-33.857c19.604,0,35.552,15.948,35.552,35.552s-15.948,35.552-35.552,35.552
		c-6.545,0-11.851,5.306-11.851,11.851c0,6.545,5.306,11.851,11.851,11.851c32.673,0,59.254-26.581,59.254-59.254
		C612.43,1159.845,585.849,1133.264,553.176,1133.264z"/>
	<path style="fill:#1C468A;" d="M703.286,1133.264c-32.104,0-58.308,25.668-59.21,57.558h23.702
		c0.888-18.819,16.474-33.857,35.509-33.857c19.604,0,35.552,15.948,35.552,35.552s-15.948,35.552-35.552,35.552
		c-6.545,0-11.851,5.306-11.851,11.851c0,6.545,5.306,11.851,11.851,11.851c32.673,0,59.254-26.581,59.254-59.254
		C762.539,1159.845,735.959,1133.264,703.286,1133.264z"/>
	<path style="fill:#1C468A;" d="M853.395,1133.264c-32.104,0-58.308,25.668-59.211,57.558h23.702
		c0.888-18.819,16.474-33.857,35.509-33.857c19.604,0,35.552,15.948,35.552,35.552s-15.948,35.552-35.552,35.552
		c-6.545,0-11.851,5.306-11.851,11.851c0,6.545,5.306,11.851,11.851,11.851c32.673,0,59.254-26.581,59.254-59.254
		C912.649,1159.845,886.068,1133.264,853.395,1133.264z"/>
	<path style="fill:#1C468A;" d="M1003.505,1133.264c-32.104,0-58.308,25.668-59.211,57.558h23.701
		c0.888-18.819,16.474-33.857,35.509-33.857c19.604,0,35.552,15.948,35.552,35.552s-15.948,35.552-35.552,35.552
		c-6.545,0-11.851,5.306-11.851,11.851c0,6.545,5.306,11.851,11.851,11.851c32.673,0,59.254-26.581,59.254-59.254
		C1062.758,1159.845,1036.177,1133.264,1003.505,1133.264z"/>
	<polygon style="fill:#AFCDFB;" points="694.716,1393.686 567.3,1393.686 544.222,1307.653 671.638,1307.653 	"/>
	<polygon style="fill:#AFCDFB;" points="876.154,1393.686 748.739,1393.686 725.661,1307.653 853.076,1307.653 	"/>
	<polygon style="fill:#AFCDFB;" points="1049.8,1393.686 922.384,1393.686 899.306,1307.653 1026.722,1307.653 	"/>
	<polygon style="fill:#AFCDFB;" points="728.325,1513.008 600.909,1513.008 577.831,1426.975 705.246,1426.975 	"/>
	<polygon style="fill:#AFCDFB;" points="909.763,1513.008 782.347,1513.008 759.269,1426.975 886.685,1426.975 	"/>
	<polygon style="fill:#AFCDFB;" points="1083.408,1513.008 955.993,1513.008 932.915,1426.975 1060.33,1426.975 	"/>
	<polygon style="fill:#AFCDFB;" points="762.924,1634.829 635.508,1634.829 612.43,1548.797 739.846,1548.797 	"/>
	<polygon style="fill:#AFCDFB;" points="944.362,1634.829 816.946,1634.829 793.868,1548.797 921.284,1548.797 	"/>
	<polygon style="fill:#AFCDFB;" points="1118.008,1634.829 990.592,1634.829 967.514,1548.797 1094.929,1548.797 	"/>
	<polygon style="fill:#D88029;" points="439.991,1190.625 441.784,1713.271 305.797,1739.363 	"/>
	<path style="fill:#283250;" d="M2832.94,1743.273H147.733c-1.318,0-2.396-1.078-2.396-2.396l0,0c0-1.318,1.078-2.396,2.396-2.396
		H2832.94c1.318,0,2.396,1.078,2.396,2.396l0,0C2835.336,1742.195,2834.258,1743.273,2832.94,1743.273z"/>
</g>
</svg>
