<?xml version="1.0" encoding="utf-8"?>
<!-- Generator: Adobe Illustrator 27.5.0, SVG Export Plug-In . SVG Version: 6.00 Build 0)  -->
<svg version="1.1" xmlns="http://www.w3.org/2000/svg" xmlns:xlink="http://www.w3.org/1999/xlink" x="0px" y="0px"
	 viewBox="0 0 900 600" style="enable-background:new 0 0 900 600;" xml:space="preserve">
<g id="Layer_2">
	<rect style="fill:#FFFFFF;" width="900" height="600"/>
	<rect style="opacity:0;fill:#FFFFFF;" width="900" height="600"/>
</g>
<g id="Layer_1">
	<g>
		<g>
			<g>
				<g>
					<g>
						<path style="fill:#FCEADC;" d="M250.499,472.561c-33.831-12.885-80.438-60.344-88.419-120.4
							c-5.728-43.106,3.26-74.683,16.547-97.517c23.005-39.536,65.841-53.524,110.501-59.885
							c56.978-8.116,83.401-42.035,122.073-83.398c43.21-46.217,156.763-92.027,219.913-38.001
							c41.1,35.162,26.866,91.373,55.43,120.373c28.726,29.164,67.359,20.343,83.211,75.999
							c12.35,43.363-13.993,116.002-91.165,170.223C607.491,489.911,368.568,517.53,250.499,472.561z"/>
					</g>
				</g>
			</g>
		</g>
		<g>
			<g>
				<g>
					<g>
						<g>
							<g>
								<path style="fill:#976063;" d="M413.135,550.094h218.233c7.099,0,12.854-5.578,12.854-12.458V104.382
									c0-6.881-5.755-12.458-12.854-12.458H413.135c-7.099,0-12.854,5.578-12.854,12.458v433.254
									C400.281,544.516,406.036,550.094,413.135,550.094z"/>
							</g>
						</g>
					</g>
				</g>
			</g>
		</g>
		<g>
			<g>
				<g>
					<g>
						<g>
							<g>
								<path style="fill:#FDFFFE;" d="M636.94,135.501v32.401c0,1.32-1.081,2.412-2.412,2.412h-0.205v367.323
									c0,6.883-5.757,12.458-12.856,12.458h-218.23c-7.099,0-12.856-5.575-12.856-12.458V256.732h-0.307
									c-1.32,0-2.401-1.092-2.401-2.412v-32.401c0-1.32,1.081-2.4,2.401-2.4h0.307v-11.206h-0.307
									c-1.32,0-2.401-1.081-2.401-2.412v-32.39c0-1.331,1.081-2.412,2.401-2.412h0.307v-66.714
									c0-6.883,5.757-12.458,12.856-12.458h218.23c7.099,0,12.856,5.575,12.856,12.458V133.1h0.205
									C635.859,133.1,636.94,134.181,636.94,135.501z"/>
							</g>
						</g>
					</g>
				</g>
			</g>
		</g>
		<g>
			<g>
				<g>
					<g>
						<g>
							<g>
								<g>
									<path style="fill:#976063;" d="M391.382,333.1h-2v-75.439c-1.544-0.322-2.708-1.698-2.708-3.341v-32.401
										c0-1.638,1.164-3.009,2.708-3.33v-9.348c-1.544-0.322-2.708-1.698-2.708-3.341v-32.39c0-1.643,1.164-3.019,2.708-3.341
										v-65.785c0-7.42,6.215-13.457,13.855-13.457h218.23c7.641,0,13.857,6.037,13.857,13.457v27.808
										c1.499,0.358,2.616,1.705,2.616,3.307v32.401c0,1.607-1.117,2.959-2.616,3.318v138.63h-2V169.314h1.204
										c0.778,0,1.412-0.633,1.412-1.412v-32.401c0-0.772-0.634-1.4-1.412-1.4h-1.204v-29.715c0-6.318-5.318-11.457-11.857-11.457
										h-218.23c-6.537,0-11.855,5.14-11.855,11.457v67.713h-1.307c-0.772,0-1.401,0.633-1.401,1.412v32.39
										c0,0.779,0.629,1.412,1.401,1.412h1.307v13.206h-1.307c-0.772,0-1.401,0.628-1.401,1.4v32.401
										c0,0.766,0.642,1.412,1.401,1.412h1.307V333.1z"/>
								</g>
							</g>
							<g>
								<g>
									<path style="fill:#976063;" d="M621.467,551.094h-218.23c-7.64,0-13.855-6.037-13.855-13.457v-78.859h2v78.859
										c0,6.317,5.318,11.457,11.855,11.457h218.23c6.538,0,11.857-5.14,11.857-11.457V372.824h2v164.813
										C635.324,545.057,629.108,551.094,621.467,551.094z"/>
								</g>
							</g>
						</g>
					</g>
				</g>
			</g>
		</g>
		<g>
			<g>
				<g>
					<g>
						<g>
							<g>
								<path style="fill:#FCEADC;" d="M622.547,116.589v405.436c0,6.437-5.19,11.656-11.592,11.656H414.102
									c-6.408,0-11.603-5.224-11.603-11.667V116.578c0-6.437,5.19-11.656,11.592-11.656h57.471c1.842,0,3.335,1.502,3.333,3.355
									l-0.006,5.448c-0.003,2.415,1.96,4.391,4.362,4.391h66.542c2.402,0,4.365-1.976,4.362-4.391l-0.006-5.448
									c-0.002-1.852,1.491-3.355,3.333-3.355h57.46C617.352,104.922,622.547,110.146,622.547,116.589z"/>
							</g>
						</g>
					</g>
				</g>
			</g>
		</g>
		<g>
			<g>
				<g>
					<path style="fill:#5E3B3B;" d="M485.521,106.98c0,1.136-0.921,2.058-2.057,2.058c-1.136,0-2.057-0.921-2.057-2.058
						s0.921-2.057,2.057-2.057C484.6,104.922,485.521,105.843,485.521,106.98z"/>
				</g>
			</g>
			<g>
				<g>
					<path style="fill:#5E3B3B;" d="M543.301,108.117h-47.25c-0.628,0-1.138-0.509-1.138-1.138c0-0.628,0.509-1.138,1.138-1.138
						h47.25c0.628,0,1.138,0.509,1.138,1.138C544.438,107.608,543.929,108.117,543.301,108.117z"/>
				</g>
			</g>
		</g>
		<g>
			<path style="fill:#FFFFFF;" d="M420.522,349.666h183.662c3.799,0,6.879-3.08,6.879-6.879v-180.63c0-3.799-3.08-6.879-6.879-6.879
				H420.522c-3.799,0-6.879,3.08-6.879,6.879v180.63C413.643,346.587,416.723,349.666,420.522,349.666z"/>
		</g>
		<g>
			<g>
				<path style="fill:#976063;" d="M595.84,350.666H421.522c-4.896,0-8.879-3.983-8.879-8.879V179.999h2v161.789
					c0,3.793,3.086,6.879,6.879,6.879H595.84V350.666z"/>
			</g>
		</g>
		<g>
			<g>
				<path style="fill:#976063;" d="M611.063,302.605h-2V162.157c0-2.69-2.188-4.879-4.879-4.879H438.522v-2h165.663
					c3.793,0,6.879,3.086,6.879,6.879V302.605z"/>
			</g>
		</g>
		<g>
			<g>
				<path style="fill:#FD755F;" d="M450.502,422.268h123.702c6.173,0,11.224-5.051,11.224-11.224v-15.399
					c0-6.173-5.051-11.224-11.224-11.224H450.502c-6.173,0-11.224,5.051-11.224,11.224v15.399
					C439.278,417.218,444.329,422.268,450.502,422.268z"/>
			</g>
			<g>
				<g>
					<path style="fill:#976063;" d="M574.204,423.269H469.707v-2h104.496c5.638,0,10.224-4.587,10.224-10.225v-15.398h2v15.398
						C586.427,417.784,580.944,423.269,574.204,423.269z"/>
				</g>
			</g>
			<g>
				<g>
					<path style="fill:#976063;" d="M450.502,423.269c-6.74,0-12.224-5.484-12.224-12.225v-15.398
						c0-6.74,5.484-12.225,12.224-12.225h75.764v2h-75.764c-5.638,0-10.224,4.587-10.224,10.225v15.398
						c0,5.638,4.586,10.225,10.224,10.225V423.269z"/>
				</g>
			</g>
			<g>
				<g>
					<rect x="545.447" y="383.421" style="fill:#976063;" width="28.756" height="2"/>
				</g>
			</g>
			<g>
				<g>
					<path style="fill:#FDFFFE;" d="M487.719,393.254h6.822c2.301,0,4.028,0.423,5.18,1.269c1.151,0.846,1.727,2.086,1.727,3.719
						v1.989c0,1.634-0.576,2.873-1.727,3.719c-1.151,0.846-2.878,1.269-5.18,1.269h-2.19v8.217h-4.633V393.254z M494.541,402.336
						c0.758,0,1.327-0.144,1.706-0.433c0.379-0.288,0.568-0.778,0.568-1.47v-2.393c0-0.692-0.189-1.182-0.568-1.47
						c-0.379-0.288-0.948-0.432-1.706-0.432h-2.19v6.199H494.541z"/>
				</g>
				<g>
					<path style="fill:#FDFFFE;" d="M508.605,393.254h6.275l4.801,20.182h-4.632l-0.842-4.007v0.057h-5.264l-0.843,3.95h-4.295
						L508.605,393.254z M513.658,406.747l-2.064-9.976h-0.084l-2.021,9.976H513.658z"/>
				</g>
				<g>
					<path style="fill:#FDFFFE;" d="M526.753,404.844l-5.601-11.59h4.927l3.158,7.409h0.084l3.158-7.409h4.506l-5.601,11.59v8.592
						h-4.633V404.844z"/>
				</g>
			</g>
		</g>
		<g>
			<g>
				<g>
					<g>
						<g>
							<g>
								<g>
									<polygon style="fill:#FFB486;" points="703.668,538.34 705.291,519.362 691.377,519.362 692.219,538.34 									"/>
								</g>
							</g>
						</g>
					</g>
				</g>
				<g>
					<g>
						<g>
							<g>
								<path style="fill:#FCA377;" d="M705.247,519.663l-0.925,10.682c-4.902,0.312-9.635-0.291-12.504-0.785l-0.499-11.031
									L705.247,519.663z"/>
							</g>
						</g>
					</g>
				</g>
			</g>
			<g>
				<g>
					<g>
						<path style="fill:#BB8A5C;" d="M680.368,525.581c13.159,2.065,25.387,2.925,34.686,0c0,0,7.868-88.201-6.08-169.241
							l-27.895,0.122C681.079,356.462,670.35,453.856,680.368,525.581z"/>
					</g>
				</g>
			</g>
			<g>
				<g>
					<g>
						<g>
							<path style="fill:#5E3B3B;" d="M679.294,275.675c-5.317-1.286-8.617-3.601-9.809-6.88c-1.737-4.781,1.658-9.619,2.051-10.155
								l1.049,0.769c-0.14,0.191-3.41,4.725-1.877,8.942c1.033,2.845,4.024,4.884,8.891,6.061L679.294,275.675z"/>
						</g>
					</g>
				</g>
			</g>
			<g>
				<g>
					<g>
						<g>
							<g>
								<g>
									<polygon style="fill:#FFB486;" points="622.175,538.34 628.157,519.362 614.244,519.362 610,538.34 									"/>
								</g>
							</g>
						</g>
					</g>
				</g>
				<g>
					<g>
						<g>
							<g>
								<path style="fill:#FCA377;" d="M628.187,519.2l-3.299,10.435c-6.264,1.119-11.089,0.058-12.804-0.422l2.369-10.602h4.97
									L628.187,519.2z"/>
							</g>
						</g>
					</g>
				</g>
			</g>
			<g>
				<g>
					<g>
						<g>
							<path style="fill:#A3BD8C;" d="M695.772,300.27c0,0,37.551,6.884,34.17,44.026c-1.405,15.44-13.076,26.113-13.076,26.113
								l-4.286-13.052l-15.021,5.052L695.772,300.27z"/>
						</g>
					</g>
				</g>
			</g>
			<g>
				<g>
					<g>
						<g>
							<polygon style="fill:#FFB587;" points="674.916,303.857 677.551,283.66 689.491,283.66 692.31,303.857 							"/>
						</g>
					</g>
				</g>
			</g>
			<g>
				<g>
					<g>
						<g>
							<path style="fill:#FFB587;" d="M681.019,291.46c7.548-2.122,16.46-12.539,13.13-24.576
								c-2.641-9.549-18.952-6.915-23.305,1.28C664.091,280.875,663.673,296.336,681.019,291.46z"/>
						</g>
					</g>
				</g>
			</g>
			<g>
				<g>
					<g>
						<g>
							<g>
								<path style="fill:#FFBA8C;" d="M612.139,324.064c-0.726-0.52-3.113-2.111-3.496-2.917c-0.355-0.748-1.753-5.037-2.636-4.658
									c-0.925,0.397,0.652,3.148-0.131,3.337c-0.483,0.116-3.663-5.225-4.512-4.36c-0.557,0.568,1.809,3.541,1.411,3.726
									c-0.37,0.172-2.521-4.099-3.389-3.299c-0.909,0.838,2.984,4.437,2.543,4.8c-0.218,0.179-3.596-4.569-4.288-3.896
									c-0.924,0.898,2.898,4.2,2.512,4.646c-0.19,0.219-1.332-1.189-2.118-1.94c-0.436-0.417-0.842-0.132-0.714,0.257
									c1.326,4.029,7.724,7.755,8.141,8.344c0.62,0.874,1.246,1.717,1.878,2.528L612.139,324.064z"/>
							</g>
						</g>
					</g>
				</g>
			</g>
			<g>
				<g>
					<path style="fill:#BB8A5C;" d="M603.668,524.735c12.702,1.796,24.583,2.214,34.897,0
						c42.808-79.414,60.723-169.119,60.723-169.119h-33.075C623.492,429.211,603.668,524.735,603.668,524.735z"/>
				</g>
			</g>
			<g>
				<g>
					<path style="fill:#A3BD8C;" d="M631.219,332.547l-18.776-10.103l-6.841,8.895c0,0,11.067,28.847,32.769,26.421
						c17.36-1.94,27.828-34.483,27.828-34.483L631.219,332.547z"/>
				</g>
			</g>
			<g>
				<g>
					<path style="fill:#A3BD8C;" d="M717.247,379.785c-29.863,13.594-73.272,1.695-73.272,1.695l1.324-4.398l0.203-0.679
						l11.29-37.595l-29.688-0.357c0,0,19.89-27.909,31.474-34.696c3.026-1.772,7.081-3.11,11.668-3.95
						c0.357-0.063,0.721-0.126,1.086-0.182c7.459-1.219,16.185-1.135,24.134,0.546c0.28,0.056,0.56,0.119,0.833,0.182
						c4.461,1.009,8.649,2.528,12.2,4.615c0,0-2.129,11.99,0.854,20.135c6.786,18.518,7.809,40.635,7.914,50.062
						c0.007,0.266,0.007,0.518,0.007,0.763C717.296,378.377,717.247,379.785,717.247,379.785z"/>
				</g>
			</g>
			<g>
				<g>
					<g>
						<path style="fill:#89A371;" d="M691.141,385.96c-0.442,0.033-0.883,0.066-1.325,0.099c-0.32,0.022-0.641,0.044-0.961,0.055
							c-23.235,1.303-44.88-4.638-44.88-4.638l1.325-4.395l0.199-0.674l8.773-29.33c1.48-1.513,8.92-13.635,10.08-18.538
							c0,0,0.493,12.547-3.454,22.838c-2.492,6.496-5.287,16.145-1.974,22.274C663.22,381.592,690.765,385.849,691.141,385.96z"/>
					</g>
				</g>
			</g>
			<g>
				<g>
					<g>
						<g>
							
								<rect x="625.475" y="327.666" transform="matrix(0.6313 -0.7756 0.7756 0.6313 -20.3737 613.7797)" style="fill:#5E3B3B;" width="19.651" height="1.299"/>
						</g>
					</g>
				</g>
			</g>
			<g>
				<g>
					<g>
						<g>
							<path style="fill:#5E3B3B;" d="M674.859,292.675c-3.73,0-5.757-1.922-5.871-2.034l0.908-0.93
								c0.134,0.128,3.325,3.149,9.405,0.74l0.479,1.209C677.906,292.403,676.262,292.675,674.859,292.675z"/>
						</g>
					</g>
				</g>
			</g>
			<g>
				<g>
					<g>
						<g>
							<path style="fill:#FFB587;" d="M691.693,299.307c-8.807,4.139-16.116-0.382-16.116-0.382l0.206-1.615l15.588-0.205
								L691.693,299.307z"/>
						</g>
					</g>
				</g>
			</g>
			<g>
				<g>
					<g>
						<g>
							<g>
								<path style="fill:#5E3B3B;" d="M682.271,382.852c-17.17,0-31.699-3.599-37.149-5.146l0.355-1.25
									c5.397,1.532,19.787,5.095,36.794,5.095c13.02,0,24.713-2.095,34.758-6.227l0.494,1.203
									C707.321,380.724,695.46,382.852,682.271,382.852z"/>
							</g>
						</g>
					</g>
				</g>
			</g>
			<g>
				<g>
					<g>
						<g>
							<path style="fill:#5E3B3B;" d="M718.275,379.786h-1.301c0-0.32-0.09-32.27-7.877-54.595l1.227-0.428
								C718.184,347.294,718.275,379.464,718.275,379.786z"/>
						</g>
					</g>
				</g>
			</g>
			<g>
				<g>
					<g>
						<g>
							<g>
								<path style="fill:#5E3B3B;" d="M685.449,304.512c-6.229,0-12.132-2.996-14.442-4.327l0.648-1.127
									c3.449,1.986,15.325,7.899,23.375,0.627l0.871,0.965C692.725,303.52,689.033,304.512,685.449,304.512z"/>
							</g>
						</g>
					</g>
				</g>
			</g>
			<g>
				<g>
					<g>
						<g>
							<g>
								<path style="fill:#5E3B3B;" d="M589.877,548.496h36.2l-2.47-14.22c-7.69,3.48-11.19,1.29-13.52,0.53
									c0,0-1.808,1.638-3.973,2.463c-5.715,2.178-15.831,5.388-16.077,8.057c0,0,0,0.01-0.01,0.03
									C589.747,546.746,589.837,548.066,589.877,548.496z"/>
							</g>
						</g>
					</g>
				</g>
				<g>
					<g>
						<g>
							<g>
								<g>
									<g>
										<path style="fill:#FDFFFE;" d="M599.84,542.11l-0.499-0.028l0.499,0.027l-0.497-0.071c0.052-1.307,0.22-2.681,0.473-3.868
											l0.979,0.209c-0.242,1.133-0.402,2.447-0.452,3.699L599.84,542.11z"/>
									</g>
								</g>
							</g>
						</g>
					</g>
					<g>
						<g>
							<g>
								<g>
									<g>
										<path style="fill:#FDFFFE;" d="M602.941,541.364h-1c0-0.019,0.031-2.029,0.528-4.207l0.975,0.223
											C602.979,539.419,602.941,541.347,602.941,541.364z"/>
									</g>
								</g>
							</g>
						</g>
					</g>
				</g>
			</g>
			<g>
				<g>
					<g>
						<g>
							<g>
								<path style="fill:#5E3B3B;" d="M670.916,548.496h36.2l-2.47-14.22c-7.69,3.48-11.19,1.29-13.52,0.53
									c0,0-1.808,1.638-3.973,2.463c-5.715,2.178-15.831,5.388-16.077,8.057c0,0,0,0.01-0.01,0.03
									C670.786,546.746,670.876,548.066,670.916,548.496z"/>
							</g>
						</g>
					</g>
				</g>
				<g>
					<g>
						<g>
							<g>
								<g>
									<g>
										<path style="fill:#FDFFFE;" d="M680.878,542.11l-0.499-0.032l0.499,0.029l-0.497-0.083
											c0.056-1.332,0.22-2.665,0.473-3.854l0.979,0.209c-0.239,1.119-0.399,2.429-0.451,3.687L680.878,542.11z"/>
									</g>
								</g>
							</g>
						</g>
					</g>
					<g>
						<g>
							<g>
								<g>
									<g>
										<path style="fill:#FDFFFE;" d="M683.979,541.364h-1c0-0.019,0.031-2.029,0.528-4.207l0.975,0.223
											C684.017,539.419,683.979,541.347,683.979,541.364z"/>
									</g>
								</g>
							</g>
						</g>
					</g>
				</g>
			</g>
			<g>
				<g>
					<g>
						<g>
							
								<rect x="659.046" y="332.843" transform="matrix(0.6654 -0.7465 0.7465 0.6654 -26.7859 607.2264)" style="fill:#5E3B3B;" width="9.865" height="1.3"/>
						</g>
					</g>
				</g>
			</g>
			<g>
				<g>
					<g>
						<g>
							<path style="fill:#5E3B3B;" d="M714.527,377.085h-1.301c0-7.356-0.95-17.734-0.96-17.836l1.295-0.123
								C713.57,359.227,714.527,369.676,714.527,377.085z"/>
						</g>
					</g>
				</g>
			</g>
			<g>
				<g>
					<g>
						<g>
							<path style="fill:#5E3B3B;" d="M635.826,358.929c-20.474,0-31.075-26.949-31.18-27.222l1.213-0.467
								c0.102,0.264,10.376,26.388,29.967,26.388c0.832,0,1.678-0.047,2.516-0.141c16.982-1.898,27.173-32.973,27.598-34.295
								l1.238,0.398c-0.436,1.354-10.884,33.197-28.691,35.188C637.601,358.878,636.705,358.929,635.826,358.929z"/>
						</g>
					</g>
				</g>
			</g>
			<g>
				<g>
					<g>
						<path style="fill:#5E3B3B;" d="M716.529,321.931c-7.84,4.681-26.449,3.553-33.126-12.007
							c-4.92-11.465-2.507-24.453-1.351-28.069l-2.028-6.418c0,0-10.208-4.46-7.646-16.232c0,0,1.126,0.895,4.583,0.607
							c1.922-0.166,7.001-2.054,12.015-0.983c0.011,0,0.033,0,0.044,0.011c4.528,0.585,13.981,3.722,14.941,18.707
							c0.795,12.357,11.087,13.683,15.957,18.652C729.67,306.129,725.388,316.642,716.529,321.931z"/>
					</g>
				</g>
			</g>
			<g>
				<g>
					<g>
						<g>
							<path style="fill:#FFB587;" d="M684.607,278.539c0,1.856-1.505,3.361-3.361,3.361c-1.856,0-3.361-1.505-3.361-3.361
								c0-1.857,1.505-3.361,3.361-3.361C683.102,275.178,684.607,276.683,684.607,278.539z"/>
						</g>
					</g>
				</g>
			</g>
			<g>
				<g>
					<g>
						<g>
							<path style="fill:#5E3B3B;" d="M728.201,302.645c-0.792-3.195-2.792-6.206-5.945-8.947c-1.481-1.291-3.389-2.249-5.409-3.262
								c-5.145-2.582-10.464-5.253-11.708-13.883c-2.105-14.648-11.744-16.719-15.791-16.929l-0.104-0.012
								c-3.651-0.478-7.222,0.616-9.585,1.341c-0.812,0.249-1.513,0.464-2.01,0.547l-0.213-1.282
								c0.412-0.068,1.106-0.282,1.842-0.508c2.47-0.758,6.206-1.902,10.141-1.386c4.365,0.229,14.765,2.441,17.008,18.044
								c1.146,7.958,6.158,10.473,11.005,12.906c2.095,1.052,4.074,2.045,5.679,3.443c3.358,2.92,5.496,6.155,6.353,9.615
								L728.201,302.645z"/>
						</g>
					</g>
				</g>
			</g>
			<g>
				<g>
					<g>
						<path style="fill:#9B6C49;" d="M708.821,526.933c-8.238,1.16-18.056,0.287-28.447-1.347
							c-3.909-27.995-4.451-59.475-3.921-87.977c0.021,0.33,8.553-27.162,8.553-27.162s-3.718,21.474-2.444,34.398
							c1.316,13.346,6.203,17.293,8.083,32.331c1.099,8.791-3.289,15.414-1.692,24.624c1.682,9.694,9.112,15.691,16.368,22.206
							C706.369,524.956,707.672,525.906,708.821,526.933z"/>
					</g>
				</g>
			</g>
			<g>
				<g>
					<g>
						<g>
							<path style="fill:#FDFFFE;" d="M676.641,439.436l-1.229-0.428c3.484-10.006,6.823-20.303,9.925-30.604l1.244,0.375
								C683.475,419.098,680.13,429.412,676.641,439.436z"/>
						</g>
					</g>
				</g>
			</g>
			<g>
				<g>
					<g>
						<path style="fill:#9B6C49;" d="M640.552,520.996c-0.651,1.248-1.314,2.496-1.988,3.744c-10.314,2.209-22.197,1.789-34.897,0
							c0,0,9.033-43.521,28.039-94.442c0.883,9.332-1.414,19.049-4.152,28.16c-3.611,11.982-8.017,24.185-6.913,36.652
							c0.795,9.033,5.455,18.663,13.384,23.511C635.914,519.781,638.211,520.433,640.552,520.996z"/>
					</g>
				</g>
			</g>
			<g>
				<g>
					<g>
						<g>
							<path style="fill:#FDFFFE;" d="M629.91,438.276l-1.223-0.439c7.767-21.614,15.672-40.95,22.86-55.917l1.172,0.563
								C645.55,397.41,637.663,416.704,629.91,438.276z"/>
						</g>
					</g>
				</g>
			</g>
		</g>
		<g>
			<g>
				<g>
					<g>
						<path style="fill:#A3BD8C;" d="M346.279,212.018c-1.548,90.664-136.409,90.65-137.944-0.003
							C209.883,121.354,344.743,121.368,346.279,212.018z"/>
					</g>
				</g>
				<g>
					<g>
						<g>
							<path style="fill:#FD755F;" d="M346.279,212.018c-1.548,90.664-136.409,90.65-137.944-0.003
								C209.883,121.354,344.743,121.368,346.279,212.018z"/>
						</g>
					</g>
				</g>
			</g>
			<g>
				<g>
					<g>
						<path style="fill:#FFFFFF;" d="M337.376,212.018c-1.349,78.962-118.802,78.949-120.139-0.003
							C218.585,133.056,336.039,133.069,337.376,212.018z"/>
					</g>
				</g>
				<g>
					<g>
						<g>
							<path style="fill:#FFFFFF;" d="M337.376,212.018c-1.349,78.962-118.802,78.949-120.139-0.003
								C218.585,133.056,336.039,133.069,337.376,212.018z"/>
						</g>
					</g>
				</g>
			</g>
			<g>
				<g>
					<path style="fill:#5E3B3B;" d="M312.732,220.797l-33.243-10.701L262.131,168.9c-0.39-0.926-1.292-1.525-2.298-1.525
						c-1.74-0.031-3.008,1.865-2.297,3.461l16.38,38.875l-44.954-13.294c-0.651-0.201-1.38,0.202-1.555,0.861
						c-0.183,0.653,0.197,1.341,0.848,1.533l46.915,13.874l0.219,0.521l-0.236,0.733l0.63,0.203l0.235,0.557l0.648-0.273
						l34.538,11.117C314.262,226.58,315.829,221.745,312.732,220.797z"/>
				</g>
			</g>
			<g>
				<g>
					<g>
						<path style="fill:#5E3B3B;" d="M270.321,171.055v1.799h6.577v-1.799h-2.132v-9.828h-1.625l-3.597,3.115
							c1.074,1.994,1.853,1.012,3.106-0.105v6.817H270.321z"/>
					</g>
				</g>
				<g>
					<g>
						<path style="fill:#5E3B3B;" d="M284.844,170.806c0,0-3.708,0.001-3.748,0.002c10.723-8.294-1.704-13.866-3.217-5.922
							c3.088,1.112,1.567-2.494,4.54-1.731c3.852,3.158-5.349,6.436-4.71,9.7h7.998
							C285.666,172.145,285.975,170.795,284.844,170.806z"/>
					</g>
				</g>
				<g>
					<g>
						<path style="fill:#5E3B3B;" d="M280.353,255.709c-0.826-0.787-2.07-1.084-3.191-0.892l3.359-4.252
							c-0.464,0.072-2.199-0.136-2.594,0.135c-0.268-0.084-2.97,3.838-3.175,4.042C268.126,263.951,285.733,264.877,280.353,255.709
							z M275.424,258.443c-0.074-2.456,4.051-2.512,3.879,0.03C279.415,260.996,275.206,261.043,275.424,258.443z"/>
					</g>
				</g>
				<g>
					<g>
						<path style="fill:#5E3B3B;" d="M327.461,212.129c-0.233-0.287-0.53-0.528-0.889-0.719c5.112-5.053-5.985-8.557-6.252-1.865
							c0.713,0.102,1.964,0.553,2.176-0.502c2.037-4.101,5.726,2.145,0.693,1.651v1.754c3.715-0.729,3.54,4.074,0.089,3.132
							c-1.552-0.87-0.974-2.737-3.328-1.378C320.689,220.116,330.737,217.491,327.461,212.129z"/>
					</g>
				</g>
				<g>
					<g>
						<path style="fill:#5E3B3B;" d="M233.366,206.877c-5.757-4.932-10.384,6.829-2.482,6.1l-3.462,4.535
							c0.743-0.104,2.565,0.317,3.031-0.483C232.206,214.283,236.41,210.117,233.366,206.877z M228.869,208.741
							c0.897-2.113,4.305-0.757,3.365,1.434C231.31,212.321,227.861,211.011,228.869,208.741z"/>
					</g>
				</g>
			</g>
			<g>
				<g>
					<g>
						
							<rect x="249.189" y="159.752" transform="matrix(0.866 -0.5 0.5 0.866 -48.2796 147.1034)" style="fill:#976063;" width="2.312" height="7.772"/>
					</g>
				</g>
				<g>
					<g>
						
							<rect x="303.112" y="256.232" transform="matrix(0.866 -0.5 0.5 0.866 -89.2967 186.9932)" style="fill:#976063;" width="2.312" height="7.772"/>
					</g>
				</g>
				<g>
					<g>
						<g>
							
								<rect x="227.493" y="179.747" transform="matrix(0.5 -0.866 0.866 0.5 -44.8363 289.929)" style="fill:#976063;" width="2.353" height="8.095"/>
						</g>
					</g>
					<g>
						<g>
							
								<rect x="227.493" y="179.747" transform="matrix(0.5 -0.866 0.866 0.5 -44.8363 289.929)" style="fill:#976063;" width="2.353" height="8.095"/>
						</g>
					</g>
					<g>
						<g>
							
								<rect x="324.767" y="235.908" transform="matrix(0.5 -0.866 0.866 0.5 -44.8367 402.2501)" style="fill:#976063;" width="2.353" height="8.095"/>
						</g>
					</g>
				</g>
				<g>
					<g>
						<g>
							
								<rect x="224.622" y="238.779" transform="matrix(0.866 -0.5001 0.5001 0.866 -89.3473 146.5019)" style="fill:#976063;" width="8.095" height="2.353"/>
						</g>
					</g>
					<g>
						<g>
							
								<rect x="224.622" y="238.779" transform="matrix(0.866 -0.5001 0.5001 0.866 -89.3473 146.5019)" style="fill:#976063;" width="8.095" height="2.353"/>
						</g>
					</g>
					<g>
						<g>
							
								<rect x="321.896" y="182.618" transform="matrix(0.866 -0.5001 0.5001 0.866 -48.2286 187.6317)" style="fill:#976063;" width="8.095" height="2.353"/>
						</g>
					</g>
				</g>
				<g>
					<g>
						
							<rect x="246.459" y="258.962" transform="matrix(0.5 -0.866 0.866 0.5 -100.101 346.8451)" style="fill:#976063;" width="7.772" height="2.312"/>
					</g>
				</g>
				<g>
					<g>
						
							<rect x="246.459" y="258.962" transform="matrix(0.5 -0.866 0.866 0.5 -100.101 346.8451)" style="fill:#976063;" width="7.772" height="2.312"/>
					</g>
				</g>
				<g>
					<g>
						
							<rect x="300.382" y="162.482" transform="matrix(0.5 -0.866 0.866 0.5 10.4094 345.3069)" style="fill:#976063;" width="7.772" height="2.312"/>
					</g>
				</g>
			</g>
			<g>
				<g>
					<g>
						<path style="fill:#F75D59;" d="M283.537,212.018c0.118,8.084-12.581,8.085-12.462-0.001
							C270.957,203.934,283.656,203.934,283.537,212.018z"/>
					</g>
				</g>
			</g>
			<g>
				<g>
					<path style="fill:#976063;" d="M277.306,272.082c-0.002,0-0.003,0-0.005,0c-28.847-0.002-60.213-18.796-60.913-60.052
						c0.705-41.287,32.071-60.077,60.918-60.077c0.002,0,0.003,0,0.005,0c28.847,0.002,60.213,18.795,60.912,60.051v0.029
						C337.52,253.291,306.154,272.082,277.306,272.082z M277.311,153.649c-28.045-0.002-58.541,18.266-59.226,58.381
						c0.679,40.083,31.172,58.354,59.216,58.356c28.042,0,58.534-18.263,59.227-58.368
						C335.841,171.918,305.353,153.651,277.311,153.649z"/>
				</g>
			</g>
			<g>
				<g>
					<g>
						<path style="fill:#976063;" d="M338.5,181.121c-5.329-11.027-13.804-20.194-24.51-26.508l0.861-1.461
							c10.996,6.485,19.702,15.901,25.176,27.231L338.5,181.121z"/>
					</g>
				</g>
				<g>
					<g>
						<path style="fill:#976063;" d="M209.3,228.176c-1.109-5.112-1.72-10.544-1.814-16.146
							c0.492-28.811,13.959-45.288,25.17-54.042c16.826-13.139,40.013-17.938,62.022-12.835l-0.383,1.653
							c-21.514-4.988-44.168-0.307-60.594,12.519c-10.92,8.527-24.038,24.592-24.518,52.705c0.093,5.462,0.69,10.783,1.776,15.787
							L209.3,228.176z"/>
					</g>
				</g>
				<g>
					<g>
						<path style="fill:#976063;" d="M277.366,280.875c-20.808,0-41.014-8.449-54.013-23.741l1.292-1.098
							c17.899,21.056,49.84,28.804,77.669,18.841c26.883-9.623,42.598-32.539,43.116-62.873l1.696,0.029
							c-0.277,16.245-4.739,30.315-13.26,41.817c-7.607,10.269-18.321,18.093-30.981,22.624
							C294.585,279.445,285.924,280.875,277.366,280.875z"/>
					</g>
				</g>
			</g>
		</g>
		<g>
			<rect x="435.535" y="192.306" style="fill:#C0D8A7;" width="71.211" height="54.779"/>
		</g>
		<g>
			<rect x="517.96" y="192.306" style="fill:#C0D8A7;" width="71.211" height="54.779"/>
		</g>
		<g>
			<rect x="435.535" y="257.859" style="fill:#C0D8A7;" width="71.211" height="54.779"/>
		</g>
		<g>
			<rect x="517.96" y="257.859" style="fill:#C0D8A7;" width="71.211" height="54.779"/>
		</g>
		<g>
			<path style="fill:#FFFFFF;" d="M551.115,300.742c-2.106-0.376-3.712-1.236-4.819-2.582c-1.108-1.345-1.66-3.067-1.66-5.164v-2.16
				h5.662v2.488c0,1.909,1.035,2.864,3.104,2.864c2.069,0,3.104-0.986,3.104-2.958c0-1.22-0.363-2.324-1.089-3.31
				c-0.726-0.986-2.069-2.137-4.029-3.451c-2.432-1.659-4.138-3.208-5.118-4.648c-0.98-1.439-1.47-3.067-1.47-4.883
				c0-2.034,0.535-3.709,1.606-5.024c1.071-1.315,2.641-2.175,4.71-2.582v-2.864h4.9v2.864c2.105,0.376,3.703,1.229,4.792,2.559
				c1.089,1.331,1.634,3.044,1.634,5.141v0.939h-5.663v-1.268c0-1.94-0.999-2.911-2.995-2.911c-1.997,0-2.995,0.939-2.995,2.817
				c0,1.127,0.363,2.168,1.089,3.122c0.726,0.956,2.069,2.106,4.029,3.451c2.432,1.69,4.138,3.263,5.118,4.718
				c0.98,1.456,1.47,3.123,1.47,5.001c0,2.129-0.554,3.873-1.661,5.235c-1.108,1.361-2.714,2.23-4.819,2.606v3.287h-4.9V300.742z"/>
		</g>
		<g>
			<g>
				<path style="fill:#A3BD8C;" d="M430.444,376.689v23.217H204.581v-23.217c0-6.991,5.72-12.71,12.71-12.71h200.442
					C424.724,363.978,430.444,369.698,430.444,376.689z"/>
			</g>
			<g>
				<path style="fill:#FDFFFE;" d="M430.444,399.906v136.435c0,6.991-5.72,12.71-12.71,12.71H217.291
					c-6.991,0-12.71-5.72-12.71-12.71V399.906H430.444z"/>
			</g>
			<g>
				<g>
					<g>
						<g>
							<rect x="218.022" y="423.897" style="fill:#E2EDD3;" width="21.131" height="17.278"/>
						</g>
					</g>
				</g>
				<g>
					<g>
						<g>
							<rect x="218.022" y="451.349" style="fill:#E2EDD3;" width="21.131" height="17.278"/>
						</g>
					</g>
				</g>
				<g>
					<g>
						<g>
							<rect x="218.022" y="478.801" style="fill:#E2EDD3;" width="21.131" height="17.278"/>
						</g>
					</g>
				</g>
				<g>
					<g>
						<g>
							<rect x="218.022" y="506.253" style="fill:#E2EDD3;" width="21.131" height="17.278"/>
						</g>
					</g>
				</g>
			</g>
			<g>
				<g>
					<g>
						<g>
							<rect x="247.664" y="423.897" style="fill:#E2EDD3;" width="21.131" height="17.278"/>
						</g>
					</g>
				</g>
				<g>
					<g>
						<g>
							<rect x="247.664" y="451.349" style="fill:#E2EDD3;" width="21.131" height="17.278"/>
						</g>
					</g>
				</g>
				<g>
					<g>
						<g>
							<rect x="247.664" y="478.801" style="fill:#E2EDD3;" width="21.131" height="17.278"/>
						</g>
					</g>
				</g>
				<g>
					<g>
						<g>
							<rect x="247.664" y="506.253" style="fill:#E2EDD3;" width="21.131" height="17.278"/>
						</g>
					</g>
				</g>
			</g>
			<g>
				<g>
					<g>
						<g>
							<rect x="277.306" y="423.897" style="fill:#E2EDD3;" width="21.131" height="17.278"/>
						</g>
					</g>
				</g>
				<g>
					<g>
						<g>
							<rect x="277.306" y="451.349" style="fill:#E2EDD3;" width="21.131" height="17.278"/>
						</g>
					</g>
				</g>
				<g>
					<g>
						<g>
							<rect x="277.306" y="478.801" style="fill:#E2EDD3;" width="21.131" height="17.278"/>
						</g>
					</g>
				</g>
				<g>
					<g>
						<g>
							<rect x="277.306" y="506.253" style="fill:#E2EDD3;" width="21.131" height="17.278"/>
						</g>
					</g>
				</g>
			</g>
			<g>
				<g>
					<g>
						<g>
							<rect x="306.948" y="423.897" style="fill:#E2EDD3;" width="21.131" height="17.278"/>
						</g>
					</g>
				</g>
				<g>
					<g>
						<g>
							<rect x="306.948" y="451.349" style="fill:#FD755F;" width="21.131" height="17.278"/>
						</g>
					</g>
				</g>
				<g>
					<g>
						<g>
							<rect x="306.948" y="478.801" style="fill:#E2EDD3;" width="21.131" height="17.278"/>
						</g>
					</g>
				</g>
				<g>
					<g>
						<g>
							<rect x="306.948" y="506.253" style="fill:#E2EDD3;" width="21.131" height="17.278"/>
						</g>
					</g>
				</g>
			</g>
			<g>
				<g>
					<g>
						<g>
							<rect x="336.591" y="423.897" style="fill:#E2EDD3;" width="21.131" height="17.278"/>
						</g>
					</g>
				</g>
				<g>
					<g>
						<g>
							<rect x="336.591" y="451.349" style="fill:#E2EDD3;" width="21.131" height="17.278"/>
						</g>
					</g>
				</g>
				<g>
					<g>
						<g>
							<rect x="336.591" y="478.801" style="fill:#E2EDD3;" width="21.131" height="17.278"/>
						</g>
					</g>
				</g>
				<g>
					<g>
						<g>
							<rect x="336.591" y="506.253" style="fill:#E2EDD3;" width="21.131" height="17.278"/>
						</g>
					</g>
				</g>
			</g>
			<g>
				<g>
					<g>
						<g>
							<rect x="366.233" y="478.801" style="fill:#FFD4CF;" width="21.131" height="17.278"/>
						</g>
					</g>
				</g>
				<g>
					<g>
						<g>
							<rect x="366.233" y="423.897" style="fill:#FFD4CF;" width="21.131" height="17.278"/>
						</g>
					</g>
				</g>
				<g>
					<g>
						<g>
							<rect x="366.233" y="451.349" style="fill:#FFD4CF;" width="21.131" height="17.278"/>
						</g>
					</g>
				</g>
				<g>
					<g>
						<g>
							<rect x="366.233" y="506.253" style="fill:#FFD4CF;" width="21.131" height="17.278"/>
						</g>
					</g>
				</g>
			</g>
			<g>
				<g>
					<g>
						<g>
							<rect x="395.875" y="506.253" style="fill:#FFD4CF;" width="21.131" height="17.278"/>
						</g>
					</g>
				</g>
				<g>
					<g>
						<g>
							<rect x="395.875" y="423.897" style="fill:#FFD4CF;" width="21.131" height="17.278"/>
						</g>
					</g>
				</g>
				<g>
					<g>
						<g>
							<rect x="395.875" y="451.349" style="fill:#FFD4CF;" width="21.131" height="17.278"/>
						</g>
					</g>
				</g>
				<g>
					<g>
						<g>
							<rect x="395.875" y="478.801" style="fill:#FFD4CF;" width="21.131" height="17.278"/>
						</g>
					</g>
				</g>
			</g>
			<g>
				<g>
					<g>
						<g>
							<polygon style="fill:#FDFFFE;" points="316.462,466.514 310.292,458.254 312.246,456.615 316.436,462.226 322.824,453.449 
								324.797,455.062 							"/>
						</g>
					</g>
				</g>
			</g>
			<g>
				<g>
					<rect x="226.598" y="398.748" style="fill:#976063;" width="181.829" height="2"/>
				</g>
			</g>
			<g>
				<path style="fill:#976063;" d="M431.445,413.674h-2v-36.985c0-6.457-5.253-11.711-11.71-11.711H217.293v-2h200.442
					c7.56,0,13.71,6.15,13.71,13.711V413.674z"/>
			</g>
			<g>
				<path style="fill:#976063;" d="M417.735,550.049H217.293c-7.56,0-13.711-6.15-13.711-13.71v-159.65h2v159.65
					c0,6.457,5.253,11.71,11.711,11.71h200.442c6.457,0,11.71-5.253,11.71-11.71v-79.825h2v79.825
					C431.445,543.898,425.295,550.049,417.735,550.049z"/>
			</g>
			<g>
				<g>
					<g>
						<g>
							<g>
								<path style="fill:#BDD6A5;" d="M274.019,379.466c0,3.299-2.523,5.973-5.635,5.973c-3.112,0-5.635-2.674-5.635-5.973
									c0-3.298,2.523-5.973,5.635-5.973C271.496,373.493,274.019,376.167,274.019,379.466z"/>
							</g>
						</g>
					</g>
					<g>
						<g>
							<g>
								<path style="fill:#5E3B3B;" d="M268.424,382.079h-0.08c-1.98,0-3.585-1.605-3.585-3.585v-22.568
									c0-1.98,1.605-3.585,3.585-3.585h0.08c1.98,0,3.585,1.605,3.585,3.585v22.568
									C272.01,380.473,270.404,382.079,268.424,382.079z"/>
							</g>
						</g>
					</g>
				</g>
				<g>
					<g>
						<g>
							<g>
								<path style="fill:#BDD6A5;" d="M244.788,379.466c0,3.299-2.523,5.973-5.635,5.973c-3.112,0-5.635-2.674-5.635-5.973
									c0-3.298,2.523-5.973,5.635-5.973C242.265,373.493,244.788,376.167,244.788,379.466z"/>
							</g>
						</g>
					</g>
					<g>
						<g>
							<g>
								<path style="fill:#5E3B3B;" d="M239.193,382.079h-0.08c-1.98,0-3.586-1.605-3.586-3.585v-22.568
									c0-1.98,1.605-3.585,3.586-3.585h0.08c1.98,0,3.585,1.605,3.585,3.585v22.568
									C242.778,380.473,241.173,382.079,239.193,382.079z"/>
							</g>
						</g>
					</g>
				</g>
				<g>
					<g>
						<g>
							<g>
								<path style="fill:#BDD6A5;" d="M305.892,379.466c0,3.299-2.523,5.973-5.635,5.973s-5.635-2.674-5.635-5.973
									c0-3.298,2.523-5.973,5.635-5.973S305.892,376.167,305.892,379.466z"/>
							</g>
						</g>
					</g>
					<g>
						<g>
							<g>
								<path style="fill:#5E3B3B;" d="M300.297,382.079h-0.08c-1.98,0-3.585-1.605-3.585-3.585v-22.568
									c0-1.98,1.605-3.585,3.585-3.585h0.08c1.98,0,3.585,1.605,3.585,3.585v22.568
									C303.882,380.473,302.277,382.079,300.297,382.079z"/>
							</g>
						</g>
					</g>
				</g>
				<g>
					<g>
						<g>
							<g>
								<path style="fill:#BDD6A5;" d="M337.765,379.466c0,3.299-2.523,5.973-5.635,5.973c-3.112,0-5.635-2.674-5.635-5.973
									c0-3.298,2.523-5.973,5.635-5.973C335.242,373.493,337.765,376.167,337.765,379.466z"/>
							</g>
						</g>
					</g>
					<g>
						<g>
							<g>
								<path style="fill:#5E3B3B;" d="M332.17,382.079h-0.08c-1.98,0-3.585-1.605-3.585-3.585v-22.568
									c0-1.98,1.605-3.585,3.585-3.585h0.08c1.98,0,3.585,1.605,3.585,3.585v22.568
									C335.755,380.473,334.15,382.079,332.17,382.079z"/>
							</g>
						</g>
					</g>
				</g>
				<g>
					<g>
						<g>
							<g>
								<path style="fill:#BDD6A5;" d="M369.637,379.466c0,3.299-2.523,5.973-5.635,5.973c-3.112,0-5.635-2.674-5.635-5.973
									c0-3.298,2.523-5.973,5.635-5.973C367.115,373.493,369.637,376.167,369.637,379.466z"/>
							</g>
						</g>
					</g>
					<g>
						<g>
							<g>
								<path style="fill:#5E3B3B;" d="M364.042,382.079h-0.08c-1.98,0-3.585-1.605-3.585-3.585v-22.568
									c0-1.98,1.605-3.585,3.585-3.585h0.08c1.98,0,3.586,1.605,3.586,3.585v22.568
									C367.628,380.473,366.023,382.079,364.042,382.079z"/>
							</g>
						</g>
					</g>
				</g>
				<g>
					<g>
						<g>
							<g>
								<path style="fill:#BDD6A5;" d="M401.51,379.466c0,3.299-2.523,5.973-5.635,5.973s-5.635-2.674-5.635-5.973
									c0-3.298,2.523-5.973,5.635-5.973S401.51,376.167,401.51,379.466z"/>
							</g>
						</g>
					</g>
					<g>
						<g>
							<g>
								<path style="fill:#5E3B3B;" d="M395.915,382.079h-0.08c-1.98,0-3.586-1.605-3.586-3.585v-22.568
									c0-1.98,1.605-3.585,3.586-3.585h0.08c1.98,0,3.585,1.605,3.585,3.585v22.568
									C399.501,380.473,397.895,382.079,395.915,382.079z"/>
							</g>
						</g>
					</g>
				</g>
			</g>
		</g>
		<g>
			<g>
				<g>
					<g>
						<g>
							<g>
								
									<ellipse transform="matrix(0.9988 -0.0482 0.0482 0.9988 -23.6337 26.8149)" style="fill:#FFC76C;" cx="544.438" cy="503.67" rx="45.7" ry="45.7"/>
							</g>
						</g>
						<g>
							<g>
								
									<ellipse transform="matrix(0.7071 -0.7071 0.7071 0.7071 -196.6861 532.4974)" style="fill:#FFE9AB;" cx="544.438" cy="503.67" rx="32.884" ry="32.884"/>
							</g>
						</g>
						<g>
							<g>
								<path style="fill:#976063;" d="M522.361,544.751c-17.491-9.413-27.673-29.434-23.707-49.938
									c2.366-12.229,9.352-22.806,19.672-29.78c10.321-6.975,22.739-9.513,34.969-7.147c5.469,1.058,10.638,3.051,15.352,5.912
									l-0.969,1.597c-4.531-2.757-9.486-4.66-14.738-5.676c-11.74-2.271-23.661,0.166-33.569,6.861
									c-9.907,6.695-16.614,16.848-18.885,28.589c-4.689,24.235,11.213,47.764,35.45,52.454
									c11.123,2.152,22.542,0.041,32.152-5.943l0.988,1.585c-10.012,6.233-21.908,8.432-33.495,6.19
									C530.84,548.537,526.405,546.927,522.361,544.751z"/>
							</g>
						</g>
						<g>
							<g>
								<path style="fill:#976063;" d="M581.408,532.108l-1.478-1.139c4.273-5.547,7.12-11.871,8.46-18.797
									c2.432-12.574-0.65-25.615-8.456-35.78l1.481-1.137c8.13,10.588,11.341,24.173,8.807,37.271
									C588.827,519.741,585.862,526.329,581.408,532.108z"/>
							</g>
						</g>
					</g>
					<g>
						<g>
							<g>
								<path style="fill:#FFC76C;" d="M536.896,524.313c-2.84-1.085-4.854-2.702-6.041-4.852c-1.189-2.149-1.503-4.667-0.945-7.55
									l0.574-2.97l7.906,1.529l-0.662,3.422c-0.508,2.626,0.682,4.217,3.571,4.776c2.889,0.559,4.596-0.518,5.12-3.229
									c0.325-1.679,0.111-3.294-0.64-4.846c-0.751-1.552-2.32-3.496-4.708-5.834c-2.954-2.937-4.924-5.528-5.909-7.773
									c-0.986-2.244-1.237-4.614-0.754-7.112c0.541-2.797,1.734-4.955,3.579-6.474c1.844-1.519,4.266-2.278,7.263-2.278
									l0.762-3.938l6.842,1.323l-0.762,3.938c2.838,1.085,4.842,2.69,6.008,4.812c1.167,2.125,1.471,4.628,0.913,7.511
									l-0.25,1.291l-7.905-1.529l0.337-1.743c0.516-2.668-0.621-4.272-3.408-4.811c-2.787-0.539-4.43,0.482-4.93,3.065
									c-0.3,1.549-0.071,3.078,0.69,4.587c0.759,1.51,2.328,3.454,4.706,5.833c2.946,2.981,4.91,5.604,5.891,7.871
									c0.981,2.266,1.223,4.69,0.723,7.273c-0.566,2.928-1.804,5.177-3.712,6.75c-1.908,1.572-4.382,2.333-7.42,2.281
									l-0.874,4.519l-6.842-1.323L536.896,524.313z"/>
							</g>
						</g>
					</g>
				</g>
				<g>
					<g>
						<g>
							<g>
								<g>
									<g>
										<g>
											<path style="fill:#FFF9EE;" d="M526.519,468.994c2.179,3.138,2.984,6.587,2.818,10.274l0,0
												c2.987-2.169,6.324-3.406,10.143-3.315l0,0c-2.179-3.138-2.992-6.591-2.827-10.279l0,0
												C533.667,467.844,530.338,469.085,526.519,468.994z"/>
										</g>
									</g>
								</g>
							</g>
						</g>
					</g>
					<g>
						<g>
							<g>
								<g>
									<g>
										<g>
											<path style="fill:#FFF9EE;" d="M545.808,534.813c1.266,1.823,1.734,3.827,1.638,5.97l0,0
												c1.736-1.261,3.675-1.979,5.894-1.926l0,0c-1.266-1.823-1.739-3.83-1.642-5.973l0,0
												C549.962,534.144,548.027,534.865,545.808,534.813z"/>
										</g>
									</g>
								</g>
							</g>
						</g>
					</g>
				</g>
			</g>
		</g>
		<g>
			<g>
				<g>
					<g>
						<g>
							<g>
								<g>
									<g>
										<rect x="134.514" y="531.442" style="fill:#FFC76C;" width="88.661" height="17.16"/>
									</g>
								</g>
							</g>
						</g>
					</g>
					<g>
						<g>
							<g>
								<g>
									<g>
										<rect x="153.184" y="512.474" style="fill:#FFC76C;" width="88.661" height="17.16"/>
									</g>
								</g>
							</g>
						</g>
					</g>
					<g>
						<g>
							<g>
								<g>
									<g>
										<rect x="134.574" y="493.566" style="fill:#FFC76C;" width="88.661" height="17.16"/>
									</g>
								</g>
							</g>
						</g>
					</g>
					<g>
						<g>
							<g>
								<g>
									<g>
										<rect x="212.966" y="493.566" style="fill:#976063;" width="1.867" height="17.16"/>
									</g>
								</g>
							</g>
						</g>
					</g>
					<g>
						<g>
							<g>
								<g>
									<g>
										<rect x="203.631" y="493.566" style="fill:#976063;" width="1.867" height="17.16"/>
									</g>
								</g>
							</g>
						</g>
					</g>
					<g>
						<g>
							<g>
								<g>
									<g>
										<rect x="175.627" y="493.566" style="fill:#976063;" width="1.867" height="17.16"/>
									</g>
								</g>
							</g>
						</g>
					</g>
					<g>
						<g>
							<g>
								<g>
									<g>
										<rect x="156.957" y="493.566" style="fill:#976063;" width="1.867" height="17.16"/>
									</g>
								</g>
							</g>
						</g>
					</g>
					<g>
						<g>
							<rect x="231.577" y="512.475" style="fill:#976063;" width="1.867" height="17.16"/>
						</g>
					</g>
					<g>
						<g>
							<g>
								<g>
									<g>
										<rect x="222.242" y="512.475" style="fill:#976063;" width="1.867" height="17.16"/>
									</g>
								</g>
							</g>
						</g>
					</g>
					<g>
						<g>
							<rect x="194.237" y="512.475" style="fill:#976063;" width="1.867" height="17.16"/>
						</g>
					</g>
					<g>
						<g>
							<g>
								<g>
									<g>
										<rect x="184.902" y="512.475" style="fill:#976063;" width="1.867" height="17.16"/>
									</g>
								</g>
							</g>
						</g>
					</g>
					<g>
						<g>
							<rect x="175.567" y="531.442" style="fill:#976063;" width="1.867" height="17.161"/>
						</g>
					</g>
					<g>
						<g>
							<rect x="156.898" y="531.442" style="fill:#976063;" width="1.867" height="17.161"/>
						</g>
					</g>
					<g>
						<g>
							<rect x="147.563" y="531.442" style="fill:#976063;" width="1.867" height="17.161"/>
						</g>
					</g>
					<g>
						<g>
							<g>
								<g>
									<g>
										<rect x="134.563" y="510.627" style="fill:#976063;" width="88.185" height="1.867"/>
									</g>
								</g>
							</g>
						</g>
					</g>
					<g>
						<g>
							<rect x="153.243" y="529.714" style="fill:#976063;" width="88.602" height="1.867"/>
						</g>
					</g>
				</g>
				<g>
					<g>
						<g>
							<g>
								<g>
									<g>
										<path style="fill:#FFF9EE;" d="M159.999,518.465c3.455,1.755,5.832,4.449,7.457,7.823l0,0
											c1.625-3.374,4.011-6.083,7.467-7.838l0,0c-3.455-1.755-5.842-4.449-7.467-7.823l0,0
											C165.832,514.001,163.455,516.709,159.999,518.465z"/>
									</g>
								</g>
							</g>
						</g>
					</g>
				</g>
				<g>
					<g>
						<g>
							<g>
								<g>
									<g>
										<path style="fill:#FFF9EE;" d="M189.963,540.687c1.979,1.005,3.341,2.548,4.272,4.481l0,0
											c0.931-1.933,2.298-3.484,4.277-4.49l0,0c-1.979-1.005-3.346-2.549-4.277-4.481l0,0
											C193.304,538.13,191.942,539.681,189.963,540.687z"/>
									</g>
								</g>
							</g>
						</g>
					</g>
				</g>
				<g>
					<g>
						<g>
							<g>
								<g>
									<g>
										<path style="fill:#FFF9EE;" d="M208.692,502.871c1.979,1.005,3.341,2.548,4.272,4.481l0,0
											c0.931-1.933,2.298-3.484,4.277-4.49l0,0c-1.979-1.005-3.346-2.549-4.277-4.481l0,0
											C212.033,500.314,210.671,501.865,208.692,502.871z"/>
									</g>
								</g>
							</g>
						</g>
					</g>
				</g>
			</g>
			<g>
				<g>
					<rect x="240.911" y="512.475" style="fill:#976063;" width="1.867" height="19.106"/>
				</g>
			</g>
		</g>
		<g>
			<g>
				<g>
					<g>
						<polygon style="fill:#FD755F;" points="483.783,275.06 479.259,275.06 479.231,269.043 483.756,269.043 						"/>
					</g>
				</g>
				<g>
					<g>
						<polygon style="fill:#FD755F;" points="484.95,267.409 478.022,267.409 478.013,265.528 484.942,265.528 						"/>
					</g>
				</g>
				<g>
					<g>
						<polygon style="fill:#FD755F;" points="484.393,269.232 478.596,269.232 478.588,267.463 484.385,267.463 						"/>
					</g>
				</g>
			</g>
			<g>
				<g>
					<polygon style="fill:#FD755F;" points="452.224,280.569 452.202,276.337 471.154,267.928 490.061,276.337 490.079,280.569 
											"/>
				</g>
			</g>
			<g>
				<g>
					<polygon style="fill:#976063;" points="455.324,301.431 466.578,301.431 466.596,304.97 455.342,304.97 					"/>
				</g>
			</g>
			<g>
				<g>
					<polygon style="fill:#976063;" points="487.392,301.431 487.408,304.97 476.155,304.97 476.138,301.431 					"/>
				</g>
			</g>
			<g>
				<g>
					<path style="fill:#FFFFFF;" d="M471.179,271.421l-15.976,6.927l0.12,23.085h32.07l-0.103-23.085L471.179,271.421z
						 M464.266,291.88h-6.489l-0.044-8.591h6.491L464.266,291.88z M484.846,291.88h-6.483l-0.04-8.591h6.484L484.846,291.88z"/>
				</g>
			</g>
			<g>
				<g>
					<polygon style="fill:#976063;" points="476.138,301.431 476.155,304.97 466.596,304.97 466.578,301.431 					"/>
				</g>
			</g>
			<g>
				<g>
					<polygon style="fill:#FD755F;" points="476.057,284.255 476.138,301.431 466.578,301.431 466.493,284.255 					"/>
				</g>
			</g>
			<g>
				<g>
					<polygon style="fill:#FFFFFF;" points="469.308,293.8 467.489,293.8 467.485,293.113 469.304,293.113 					"/>
				</g>
			</g>
		</g>
		<g>
			<g>
				<path style="fill:#FD755F;" d="M538.032,220.194c-1.202-0.963-1.804-2.341-1.804-4.135v-8.718c0-1.793,0.602-3.171,1.804-4.135
					c1.202-0.963,2.961-1.445,5.278-1.445c2.315,0,4.076,0.482,5.278,1.445c1.203,0.964,1.804,2.341,1.804,4.135v8.718
					c0,1.793-0.601,3.171-1.804,4.135c-1.202,0.963-2.962,1.445-5.278,1.445C540.994,221.639,539.235,221.158,538.032,220.194z
					 M545.716,216.309v-9.216c0-1.461-0.802-2.192-2.405-2.192c-1.603,0-2.405,0.73-2.405,2.192v9.216
					c0,1.462,0.802,2.192,2.405,2.192C544.914,218.5,545.716,217.77,545.716,216.309z M560.28,202.261h4.676l-18.105,34.87h-4.677
					L560.28,202.261z M558.542,236.185c-1.202-0.963-1.804-2.341-1.804-4.134v-8.718c0-1.794,0.601-3.171,1.804-4.135
					c1.203-0.963,2.963-1.445,5.278-1.445c2.315,0,4.075,0.482,5.277,1.445c1.204,0.964,1.805,2.341,1.805,4.135v8.718
					c0,1.793-0.601,3.172-1.805,4.134c-1.202,0.963-2.962,1.445-5.277,1.445C561.505,237.629,559.745,237.147,558.542,236.185z
					 M566.225,232.299v-9.216c0-1.461-0.801-2.192-2.405-2.192c-1.604,0-2.405,0.731-2.405,2.192v9.216
					c0,1.462,0.801,2.192,2.405,2.192C565.424,234.491,566.225,233.761,566.225,232.299z"/>
			</g>
		</g>
		<g>
			<g>
				<g>
					<polygon style="fill:#FFFFFF;" points="492.564,211.348 492.564,212.272 451.11,212.272 451.11,211.348 471.842,199.802 					
						"/>
				</g>
			</g>
			<g>
				<g>
					<path style="fill:#C0D8A7;" d="M471.837,209.805c-1.94,0-3.52-1.458-3.52-3.251c0-1.792,1.579-3.251,3.52-3.251
						c1.94,0,3.519,1.459,3.519,3.251C475.356,208.346,473.777,209.805,471.837,209.805z M471.837,204.412
						c-1.279,0-2.319,0.961-2.319,2.142c0,1.181,1.04,2.142,2.319,2.142c1.279,0,2.319-0.961,2.319-2.142
						C474.156,205.373,473.116,204.412,471.837,204.412z"/>
				</g>
			</g>
			<g>
				<g>
					<g>
						<rect x="456.331" y="214.459" style="fill:#FFFFFF;" width="5.245" height="21.718"/>
					</g>
				</g>
				<g>
					<g>
						<rect x="469.214" y="214.459" style="fill:#FFFFFF;" width="5.245" height="21.718"/>
					</g>
				</g>
				<g>
					<g>
						<rect x="482.097" y="214.459" style="fill:#FFFFFF;" width="5.245" height="21.718"/>
					</g>
				</g>
			</g>
			<g>
				<g>
					<g>
						<rect x="451.11" y="212.197" style="fill:#C0D8A7;" width="41.454" height="1.386"/>
					</g>
				</g>
			</g>
			<g>
				<g>
					<g>
						<rect x="453.28" y="213.766" style="fill:#FFFFFF;" width="37.114" height="1.386"/>
					</g>
				</g>
			</g>
			<g>
				<g>
					<g>
						<rect x="452.224" y="235.444" style="fill:#976063;" width="37.833" height="1.385"/>
					</g>
				</g>
			</g>
			<g>
				<g>
					<g>
						<rect x="449.585" y="238.204" style="fill:#976063;" width="43.11" height="1.386"/>
					</g>
				</g>
			</g>
		</g>
		<g>
			<g>
				<rect x="127.336" y="548.094" style="fill:#976063;" width="625.434" height="3"/>
			</g>
		</g>
	</g>
</g>
</svg>
