<?xml version="1.0" encoding="utf-8"?>
<!-- Generator: Adobe Illustrator 27.5.0, SVG Export Plug-In . SVG Version: 6.00 Build 0)  -->
<svg version="1.1" xmlns="http://www.w3.org/2000/svg" xmlns:xlink="http://www.w3.org/1999/xlink" x="0px" y="0px"
	 viewBox="0 0 750 500" style="enable-background:new 0 0 750 500;" xml:space="preserve">
<g id="BACKGROUND">
	<rect x="0.5" y="0" style="fill:#FFFFFF;" width="749" height="500"/>
</g>
<g id="OBJECTS">
	<g>
		<path style="opacity:0.42;fill:#EAEAE8;" d="M184.135,425.308h76.839c41.887-7.416,73.042-16.98,100.306-0.622
			c0.346,0.207,0.712,0.415,1.087,0.622h174.386c44.439,0,91.032-38.129,102.525-78.589c36.35-127.973-56.236-185.895-143.8-162.809
			C437.794,199.118,420.7,101.37,330.366,77.837c0,0-52.263-16.852-88.144,27.463c-32.183,39.748,16.75,109.69-39.05,128.344
			c-34.911,11.671-107.434,15.079-112.048,94.294C88.195,378.221,129.11,421.758,184.135,425.308z"/>
		<g>
			<path style="fill:#EAEAE8;" d="M573.024,281.984l-70.376-16.515c-8.14-1.91-13.19-10.058-11.28-18.198l16.515-70.376
				c1.91-8.14,10.058-13.19,18.198-11.28l70.376,16.515c8.14,1.91,13.19,10.058,11.28,18.198l-16.515,70.376
				C589.311,278.844,581.164,283.894,573.024,281.984z"/>
			<g>
				<path style="fill:#467CFB;" d="M547.528,232.426L547.528,232.426c-5.294-1.242-8.578-6.541-7.336-11.835l6.148-26.2
					c1.242-5.294,6.541-8.579,11.835-7.336h0c5.294,1.242,8.578,6.541,7.336,11.835l-6.148,26.201
					C558.12,230.384,552.822,233.669,547.528,232.426z"/>
				<path style="fill:none;stroke:#467CFB;stroke-width:5;stroke-linecap:round;stroke-linejoin:round;stroke-miterlimit:10;" d="
					M531.923,221.348c0,0-0.743,14.659,13.955,18.108c14.698,3.449,20.553-10.01,20.553-10.01"/>
				
					<polyline style="fill:none;stroke:#467CFB;stroke-width:5;stroke-linecap:round;stroke-linejoin:round;stroke-miterlimit:10;" points="
					531.344,258.295 540.93,260.544 550.515,262.793 				"/>
				
					<line style="fill:none;stroke:#467CFB;stroke-width:5;stroke-linecap:round;stroke-linejoin:round;stroke-miterlimit:10;" x1="545.878" y1="239.456" x2="540.93" y2="260.544"/>
			</g>
		</g>
		<g>
			<path style="fill:#EAEAE8;" d="M265.847,209.16H193.56c-8.361,0-15.139-6.778-15.139-15.139v-72.287
				c0-8.361,6.778-15.139,15.139-15.139h72.288c8.361,0,15.139,6.778,15.139,15.139v72.287
				C280.986,202.381,274.208,209.16,265.847,209.16z"/>
			<g>
				<path style="fill:#467CFB;" d="M243.48,140.724h-41.159c-1.456,0-2.635,1.18-2.635,2.636v29.033c0,1.456,1.18,2.636,2.635,2.636
					h41.159c1.456,0,2.635-1.18,2.635-2.636V143.36C246.116,141.904,244.936,140.724,243.48,140.724z"/>
				<path style="fill:#467CFB;" d="M266.357,141.776l-14.05,7.76c-0.84,0.464-1.361,1.348-1.361,2.307v12.067
					c0,0.96,0.521,1.843,1.361,2.307l14.05,7.76c1.757,0.97,3.91-0.3,3.91-2.307v-27.587
					C270.267,142.076,268.114,140.805,266.357,141.776z"/>
			</g>
		</g>
		<g>
			<path id="XMLID_5_" style="fill:#155BCC;" d="M544.144,184.552c-10.81,0-19.573-8.763-19.573-19.573
				c0,10.81-8.763,19.573-19.573,19.573c10.81,0,19.573,8.763,19.573,19.573C524.571,193.315,533.334,184.552,544.144,184.552z"/>
			<path id="XMLID_1_" style="fill:#155BCC;" d="M505.473,176.818c-4.562,0-8.26-3.698-8.26-8.26c0,4.562-3.698,8.26-8.26,8.26
				c4.562,0,8.26,3.698,8.26,8.26C497.213,180.516,500.912,176.818,505.473,176.818z"/>
		</g>
		<g>
			<polygon style="fill:#283034;" points="59.268,424.531 138.201,424.045 217.134,423.765 375,423.532 532.866,423.762 
				611.799,424.042 690.732,424.531 611.799,425.02 532.866,425.3 375,425.53 217.134,425.297 138.201,425.017 			"/>
		</g>
		<g>
			<g>
				<path style="fill:#283034;" d="M624.786,343.203"/>
			</g>
			<g>
				<g>
					<path style="fill:#283034;" d="M624.786,345.048c2.374,0,2.378-3.69,0-3.69C622.412,341.358,622.408,345.048,624.786,345.048
						L624.786,345.048z"/>
				</g>
			</g>
		</g>
		<g>
			<g>
				<path style="fill:#283034;" d="M299.195,106.593"/>
			</g>
			<g>
				<g>
					<path style="fill:#283034;" d="M299.195,108.438c2.374,0,2.378-3.69,0-3.69C296.821,104.748,296.817,108.438,299.195,108.438
						L299.195,108.438z"/>
				</g>
			</g>
		</g>
		<g>
			<g>
				<path style="fill:#283034;" d="M140.012,305.309c-0.544,0-0.984-0.44-0.984-0.984v-6.402c0-0.544,0.44-0.984,0.984-0.984
					c0.544,0,0.984,0.44,0.984,0.984v6.402C140.996,304.869,140.556,305.309,140.012,305.309z"/>
			</g>
			<g>
				<path style="fill:#283034;" d="M143.213,302.107h-6.401c-0.544,0-0.984-0.44-0.984-0.984c0-0.544,0.44-0.984,0.984-0.984h6.401
					c0.544,0,0.984,0.44,0.984,0.984C144.197,301.667,143.757,302.107,143.213,302.107z"/>
			</g>
		</g>
		<g>
			<g>
				<path style="fill:#283034;" d="M478.941,145.628c-0.544,0-0.984-0.44-0.984-0.984v-6.402c0-0.544,0.44-0.984,0.984-0.984
					s0.984,0.44,0.984,0.984v6.402C479.925,145.188,479.485,145.628,478.941,145.628z"/>
			</g>
			<g>
				<path style="fill:#283034;" d="M482.141,142.427h-6.401c-0.544,0-0.984-0.44-0.984-0.984c0-0.544,0.44-0.984,0.984-0.984h6.401
					c0.544,0,0.984,0.44,0.984,0.984C483.125,141.987,482.685,142.427,482.141,142.427z"/>
			</g>
		</g>
		<g>
			<path style="fill:#155BCC;" d="M184.742,337.06c0,0-19.242-5.763-25.19-21.728c-5.948-15.965-0.333-36.773-12.975-49.175
				c-12.642-12.402-1.06-25.808,10.375-25.256c11.435,0.552,26.337,20.126,35.105,48.772
				C198.163,309.618,195.559,324.741,184.742,337.06z"/>
			<path style="fill:#155BCC;" d="M213.686,328.76c0,0,12.344-6.465,18.391-21.557c6.046-15.092,1.204-29.168,15.645-35.374
				c14.441-6.206,16.717-21.5,7.174-27.975c-9.542-6.475-29.004-2.982-44.678,22.18C197.736,286.074,191.048,309.482,213.686,328.76
				z"/>
			<path style="fill:#467CFB;" d="M193.355,302.707c0,0-12.219-11.318-9.415-32.951c2.804-21.634-12.16-65.39,11.217-68.907
				c22.635-3.405,24.54,22.034,24.54,33.252C219.699,245.318,220.998,294.694,193.355,302.707z"/>
			<g>
				<path style="fill:#263138;" d="M151.891,248.723c4.265,3.4,7.898,7.578,10.931,12.129c3.009,4.573,5.39,9.58,6.947,14.848
					c0.446,1.301,0.723,2.648,1.028,3.987c0.14,0.672,0.335,1.335,0.429,2.015l0.3,2.039l0.298,2.04l0.227,2.024
					c0.138,1.351,0.345,2.694,0.518,4.041c0.771,5.378,1.819,10.716,3.079,16.001c2.559,10.56,5.967,20.932,10.416,30.838
					c2.237,4.943,4.735,9.775,7.662,14.325c1.469,2.269,3.053,4.466,4.831,6.484c1.779,2.007,3.763,3.86,6.053,5.17l-0.478,0.878
					c-2.462-1.384-4.523-3.297-6.367-5.344c-1.841-2.059-3.468-4.284-4.977-6.577c-3.024-4.586-5.521-9.481-7.763-14.469
					c-4.46-9.996-7.858-20.432-10.405-31.059c-1.254-5.319-2.295-10.691-3.057-16.105c-0.17-1.356-0.375-2.708-0.511-4.069
					c-0.14-1.365-0.302-2.715-0.491-4.047l-0.268-2.008c-0.083-0.671-0.267-1.324-0.395-1.986c-0.283-1.321-0.537-2.65-0.959-3.936
					C165.938,265.573,160.067,255.942,151.891,248.723z"/>
			</g>
			<g>
				<path style="fill:#263138;" d="M199.966,221.281c0.738,5.864,1.246,11.76,1.517,17.669c0.306,5.908,0.361,11.83,0.183,17.749
					c-0.281,11.849-2.042,23.643-4.772,35.164c-0.684,2.883-1.437,5.749-2.275,8.594c-0.405,1.429-0.901,2.837-1.296,4.233
					c-0.402,1.408-0.762,2.832-1.078,4.265c-1.283,5.729-2.053,11.581-2.222,17.449c-0.4,11.717,1.738,23.6,7.081,34.06
					l-0.884,0.467c-5.484-10.606-7.83-22.687-7.344-34.563c0.185-5.946,0.978-11.861,2.29-17.658
					c0.324-1.451,0.692-2.892,1.104-4.323c0.413-1.446,0.904-2.825,1.308-4.238c0.838-2.82,1.593-5.669,2.28-8.534
					c1.37-5.729,2.504-11.519,3.327-17.353c0.83-5.833,1.311-11.705,1.57-17.596C201.222,244.882,200.893,233.06,199.966,221.281z"
					/>
			</g>
			<g>
				<path style="fill:#263138;" d="M245.937,252.229c-2.241,1.558-4.359,3.282-6.385,5.099c-2.02,1.823-3.977,3.718-5.761,5.767
					c-3.617,4.045-6.703,8.575-8.898,13.506c-2.196,4.94-3.084,10.329-3.589,15.734c-0.522,5.412-0.73,10.873-1.33,16.326
					c-0.599,5.437-1.511,10.937-3.668,16.066c-0.282,0.633-0.493,1.297-0.833,1.905l-0.968,1.846l-1.943,3.579
					c-0.635,1.193-1.163,2.44-1.75,3.657c-0.536,1.24-1.009,2.508-1.516,3.761c-1.833,5.09-3.03,10.401-3.663,15.777
					c-0.554,5.371-0.647,10.861,0.232,16.169l-0.983,0.184c-0.944-5.469-0.882-10.999-0.361-16.473
					c0.591-5.469,1.792-10.879,3.665-16.061c0.515-1.277,0.996-2.568,1.541-3.832c0.597-1.241,1.134-2.511,1.78-3.727l1.96-3.617
					l0.932-1.78c0.328-0.585,0.532-1.231,0.804-1.844c2.072-4.967,3.025-10.349,3.638-15.735c0.621-5.397,0.856-10.854,1.408-16.305
					c0.28-2.724,0.624-5.454,1.221-8.148c0.159-0.671,0.27-1.352,0.469-2.015l0.582-1.992c0.189-0.665,0.486-1.294,0.723-1.942
					c0.265-0.637,0.473-1.3,0.786-1.916c0.624-1.23,1.163-2.506,1.899-3.673l1.046-1.781l1.156-1.71
					c0.739-1.162,1.641-2.205,2.458-3.309c0.91-1.029,1.764-2.106,2.731-3.08C237.073,258.668,241.31,255.129,245.937,252.229z"/>
			</g>
			<path style="fill:#467CFB;" d="M176.251,357.005h50.245v53.808c0,6.91-5.602,12.513-12.512,12.513h-25.22
				c-6.91,0-12.512-5.602-12.512-12.513V357.005z"/>
			<rect x="176.251" y="367.315" style="fill:#155BCC;" width="50.245" height="8.507"/>
		</g>
		<g>
			<g>
				<path style="fill:#467CFB;" d="M169.979,341.325c-20.512-17.341-51.055-16.326-70.324,2.505l6.514,6.151
					c15.884-15.259,40.735-16.115,57.659-2.142L169.979,341.325z"/>
			</g>
			<g>
				<path style="fill:#467CFB;" d="M158.382,353.607c-6.766-4.663-14.776-7.111-23.147-6.871
					c-8.635,0.248-16.738,3.308-23.342,8.651l6.539,6.174c4.914-3.658,10.807-5.743,17.058-5.922
					c5.983-0.172,11.726,1.441,16.692,4.534L158.382,353.607z"/>
			</g>
			<g>
				<path style="fill:#467CFB;" d="M145.77,366.963L145.77,366.963c-6.685-3.177-14.488-2.953-20.979,0.602l0,0l4.166,3.934
					l6.646,6.233L145.77,366.963z"/>
			</g>
		</g>
		<rect x="487.044" y="365.719" style="fill:#B3CAFE;" width="156.064" height="29.072"/>
		<g>
			<rect x="492.06" y="336.648" style="fill:#155BCC;" width="114.076" height="29.071"/>
			<rect x="497.481" y="341.882" style="fill:#EAEAE8;" width="108.656" height="18.594"/>
		</g>
		<g>
			<rect x="468.722" y="394.79" style="fill:#467CFB;" width="156.064" height="29.072"/>
			<g>
				<rect x="476.138" y="396.895" style="fill:#B3CAFE;" width="15.923" height="24.863"/>
				<rect x="601.447" y="396.895" style="fill:#B3CAFE;" width="15.923" height="24.863"/>
			</g>
		</g>
		<rect x="492.061" y="369.234" style="opacity:0.5;fill:#467CFB;" width="146.029" height="22.042"/>
		<g>
			<path style="fill:none;stroke:#263138;stroke-miterlimit:10;" d="M545.65,292.397c0,0,7.46,9.571,2.534,17.454"/>
			<path style="fill:#263138;" d="M549.337,299.98c0,0,1.714-11.647,12.482-12.967C561.819,287.013,564.883,299.17,549.337,299.98z"
				/>
			<path style="fill:#467CFB;" d="M562.47,303.625c-7.038-2.824-11.752,1.202-13.372,2.779c-1.62-1.576-6.334-5.603-13.372-2.779
				c-10.287,4.128-8.684,20.603-4.152,26.565c4.012,5.278,9.501,7.812,16.68,5.49c0,0,0.37-0.214,0.844-0.12
				c0.475-0.094,0.844,0.12,0.844,0.12c7.179,2.323,12.668-0.211,16.68-5.49C571.154,324.228,572.757,307.753,562.47,303.625z"/>
		</g>
		<g>
			<path style="fill:#455862;" d="M437.983,423.919H312.017c-12.091,0-21.892-9.801-21.892-21.892V138.32
				c0-15,12.16-27.16,27.16-27.16h115.43c15,0,27.16,12.16,27.16,27.16v263.706C459.875,414.117,450.073,423.919,437.983,423.919z"
				/>
			<path style="fill:#EAEAE8;" d="M434.441,120.139h-11.901c-1.728,0-3.128,1.401-3.128,3.128l0,0
				c0,6.514-5.281,11.796-11.796,11.796h-65.231c-6.514,0-11.796-5.281-11.796-11.796l0,0c0-1.728-1.401-3.128-3.128-3.128h-11.901
				c-9.038,0-16.364,7.326-16.364,16.364v262.073c0,9.038,7.326,16.364,16.364,16.364h118.882c9.038,0,16.364-7.326,16.364-16.364
				V136.503C450.805,127.466,443.478,120.139,434.441,120.139z"/>
			<rect x="304.329" y="149.321" style="fill:#EAEAE8;" width="138.872" height="13.346"/>
			<rect x="304.329" y="169.34" style="fill:#EAEAE8;" width="138.872" height="26.568"/>
			<rect x="304.329" y="372.105" style="fill:#EAEAE8;" width="138.872" height="26.568"/>
			<path style="fill:#263138;" d="M406.121,127.992h-63.254c-2.168,0-3.926-1.758-3.926-3.926l0,0c0-2.168,1.758-3.926,3.926-3.926
				h63.254c2.168,0,3.926,1.758,3.926,3.926l0,0C410.047,126.234,408.29,127.992,406.121,127.992z"/>
		</g>
		<g>
			<rect x="237.92" y="193.298" style="fill:#B3CAFE;" width="274.161" height="166.65"/>
			<path style="opacity:0.42;fill:#467CFB;" d="M246.175,221.335v112.258c10.973,0,19.952,8.463,20.81,19.215h216.029
				c0.858-10.752,9.838-19.215,20.81-19.215V221.335c-11.54,0-20.895-9.355-20.895-20.895H267.07
				C267.07,211.98,257.715,221.335,246.175,221.335z"/>
			<g>
				<g>
					<polygon style="fill:#467CFB;" points="363.623,343.203 361.652,337.573 355.686,337.535 368.666,319.362 376.604,325.032 
											"/>
					<polygon style="fill:#467CFB;" points="386.377,343.203 388.349,337.573 394.314,337.535 381.332,319.362 373.397,325.032 
											"/>
				</g>
				<g>
					<path style="fill:#155BCC;" d="M392.681,316.675c0,1.797-2.289,3.209-2.814,4.829c-0.547,1.681,0.454,4.165-0.562,5.563
						c-1.029,1.414-3.706,1.225-5.12,2.251c-1.396,1.018-2.038,3.631-3.719,4.175c-1.623,0.527-3.668-1.191-5.466-1.191
						c-1.798,0-3.845,1.718-5.465,1.191c-1.68-0.544-2.322-3.157-3.72-4.175c-1.411-1.026-4.091-0.839-5.119-2.251
						c-1.017-1.4-0.015-3.882-0.561-5.563c-0.526-1.62-2.815-3.032-2.815-4.829c0-1.797,2.288-3.209,2.815-4.831
						c0.546-1.68-0.456-4.166,0.561-5.564c1.028-1.411,3.707-1.22,5.119-2.249c1.398-1.019,2.04-3.63,3.72-4.175
						c1.62-0.526,3.667,1.192,5.465,1.192c1.797,0,3.843-1.718,5.466-1.192c1.68,0.546,2.323,3.156,3.719,4.175
						c1.413,1.029,4.091,0.837,5.12,2.25c1.016,1.399,0.015,3.883,0.562,5.563C390.392,313.466,392.681,314.878,392.681,316.675z"/>
					<path style="fill:#467CFB;" d="M386.262,316.675c0,6.221-5.04,11.263-11.261,11.263c-6.22,0-11.263-5.042-11.263-11.263
						c0-6.221,5.043-11.262,11.263-11.262C381.222,305.413,386.262,310.454,386.262,316.675z"/>
				</g>
			</g>
			<rect x="298.451" y="220.81" style="fill:#155BCC;" width="153.099" height="15.111"/>
			<rect x="275.576" y="272.387" style="opacity:0.5;fill:#155BCC;" width="200.942" height="7.555"/>
			<rect x="275.576" y="259.86" style="opacity:0.5;fill:#155BCC;" width="200.942" height="7.555"/>
			<rect x="275.576" y="285.898" style="opacity:0.5;fill:#155BCC;" width="200.942" height="7.555"/>
			<g>
				<g>
					<g>
						<path style="fill:#155BCC;" d="M291.557,339.147c2.544-7.103,5.337-14.113,8.38-21.017c-0.381-0.161-0.762-0.321-1.142-0.482
							c-0.727,1.803-1.455,3.606-2.182,5.409c-0.741,1.836-1.641,3.677-2.237,5.564c-0.283,0.897-0.21,1.984,0.868,2.251
							c1.234,0.305,2.824-0.772,3.745-1.458c-0.306-0.235-0.612-0.47-0.918-0.706c-0.461,1.403-0.309,3.225,1.085,4.056
							c1.152,0.687,2.646,0.376,3.356-0.759c0.262-0.419-0.084-0.921-0.54-0.941c-1.171-0.051-1.988,1.105-1.692,2.229
							c0.385,1.464,2.301,2.102,3.586,2.42c1.298,0.321,8.463,0.635,6.874-2.352c-0.143-0.268-0.435-0.325-0.706-0.287
							c-1.631,0.229-1.608,2.54-0.234,3.133c2.742,1.183,3.565-2.919,5.711-3.319c-0.264-0.201-0.527-0.402-0.791-0.603
							c-0.067,0.707,0.441,1.242,1.125,1.367c1.035,0.19,1.499-0.77,2.415-0.925c0.881-0.149,1.779,0.771,2.434,1.234
							c0.739,0.521,1.471,0.901,2.384,0.973c0.802,0.063,0.798-1.187,0-1.25c-1.396-0.11-2.342-1.464-3.582-1.982
							c-0.5-0.209-1.031-0.303-1.568-0.18c-0.245,0.056-0.481,0.168-0.7,0.288c-0.034,0.019-1.298,0.895-1.258,0.475
							c0.041-0.437-0.43-0.67-0.791-0.603c-0.932,0.174-1.6,0.697-2.198,1.419c-0.336,0.405-0.609,0.865-0.97,1.249
							c-0.209,0.248-0.455,0.452-0.739,0.612c-0.67,0.398-0.972,0.17-0.905-0.683c-0.235-0.096-0.471-0.191-0.706-0.287
							c0.152,0.285-2.168,0.71-2.286,0.723c-0.693,0.077-1.407,0.074-2.1-0.008c-0.707-0.083-1.414-0.259-2.08-0.51
							c-0.369-0.139-0.769-0.284-1.089-0.523c-0.27-0.201-1.243-1.408-0.133-1.359c-0.18-0.313-0.36-0.627-0.54-0.94
							c-0.473,0.756-1.504,0.587-1.995-0.037c-0.52-0.661-0.406-1.553-0.161-2.297c0.16-0.487-0.476-1.034-0.918-0.706
							c-0.424,0.315-0.859,0.607-1.332,0.845c-0.487,0.245-1.59,0.902-1.5-0.072c0.049-0.529,0.458-1.169,0.656-1.661
							c0.273-0.676,0.546-1.352,0.818-2.028c1-2.479,2-4.958,3-7.438c0.263-0.651-0.857-1.129-1.142-0.482
							c-3.087,7.003-5.926,14.111-8.506,21.316C290.08,339.574,291.288,339.9,291.557,339.147L291.557,339.147z"/>
					</g>
				</g>
				<g>
					<g>
						<path style="fill:#155BCC;" d="M439.914,331.657c0.711-3.153,1.588-6.259,2.631-9.318c-0.402-0.111-0.803-0.221-1.205-0.332
							c-0.802,2.658,2.773,4.163,4.1,1.715c-0.388-0.105-0.776-0.21-1.165-0.315c0.087,0.974,0.173,1.947,0.26,2.921
							c0.043,0.483,0.686,0.896,1.067,0.442c5.68-6.774,9.286-15.008,10.433-23.771c-0.417,0-0.833,0-1.25,0
							c-1.098,8.97,0.166,18.111,3.658,26.447c0.201-0.264,0.402-0.527,0.603-0.791c-9.21-0.855-18.441-1.464-27.684-1.825
							c-0.689-0.027-0.872,1.121-0.166,1.228c8.318,1.253,16.717,1.785,25.126,1.565c0.803-0.021,0.806-1.271,0-1.25
							c-8.294,0.216-16.589-0.284-24.794-1.521c-0.055,0.409-0.111,0.818-0.166,1.228c9.243,0.361,18.474,0.97,27.684,1.825
							c0.372,0.035,0.753-0.433,0.603-0.791c-3.456-8.249-4.7-17.237-3.613-26.115c0.098-0.799-1.147-0.785-1.25,0
							c-1.1,8.406-4.621,16.393-10.066,22.887c0.356,0.147,0.711,0.295,1.067,0.442c-0.087-0.974-0.173-1.947-0.26-2.921
							c-0.051-0.576-0.846-0.903-1.165-0.315c-0.644,1.187-2.192,0.496-1.816-0.752c0.234-0.776-0.948-1.088-1.205-0.332
							c-1.043,3.059-1.92,6.165-2.631,9.318C438.532,332.108,439.737,332.443,439.914,331.657L439.914,331.657z"/>
					</g>
				</g>
			</g>
		</g>
		<rect x="111.893" y="209.637" style="fill:#EEEDEB;" width="58.086" height="6.128"/>
		<rect x="581.192" y="294.036" style="fill:#EEEDEB;" width="58.086" height="6.128"/>
		<rect x="91.124" y="220.941" style="fill:#EEEDEB;" width="58.086" height="6.128"/>
	</g>
</g>
</svg>
