<?xml version="1.0" encoding="UTF-8"?>
<svg version="1.1" xmlns="http://www.w3.org/2000/svg" width="122" height="110">
<path d="M0 0 C0.73605469 0.00451172 1.47210938 0.00902344 2.23046875 0.01367188 C4.02868158 0.02534858 5.82685197 0.04327989 7.625 0.0625 C6.75 4.8125 6.75 4.8125 5.625 7.0625 C4.965 7.0625 4.305 7.0625 3.625 7.0625 C3.521875 7.64 3.41875 8.2175 3.3125 8.8125 C2.4798959 11.53738613 1.64744246 13.04005754 -0.375 15.0625 C-3.5625 15.8125 -3.5625 15.8125 -6.375 16.0625 C-6.417721 17.72861905 -6.41563832 19.39632885 -6.375 21.0625 C-4.10295019 23.33454981 2.32614942 22.3644183 5.57226562 22.40429688 C11.54862528 22.61615464 15.43557334 24.08437542 20.625 27.0625 C20.625 27.7225 20.625 28.3825 20.625 29.0625 C21.285 29.0625 21.945 29.0625 22.625 29.0625 C26.34630419 32.89325432 27.00107613 36.06047541 27.25 41.375 C27.05809595 46.97859816 25.88540706 50.57729978 22.71875 55.16015625 C15.0385892 62.1382128 6.8939984 61.55569254 -2.875 61.3125 C-4.28382874 61.29240166 -5.69268521 61.27415678 -7.1015625 61.2578125 C-10.52675664 61.21089203 -13.95051524 61.14524777 -17.375 61.0625 C-16.67420108 57.22077097 -15.61903589 54.22410747 -13.8125 50.75 C-13.35746094 49.86699219 -12.90242188 48.98398438 -12.43359375 48.07421875 C-12.08425781 47.41035156 -11.73492187 46.74648437 -11.375 46.0625 C-10.78485107 46.03744385 -10.19470215 46.0123877 -9.58666992 45.98657227 C-6.91173186 45.87049948 -4.2371362 45.74782428 -1.5625 45.625 C-0.63373047 45.58568359 0.29503906 45.54636719 1.25195312 45.50585938 C2.14462891 45.46396484 3.03730469 45.42207031 3.95703125 45.37890625 C4.77921143 45.34224854 5.6013916 45.30559082 6.44848633 45.26782227 C8.80405178 45.12822228 8.80405178 45.12822228 11.625 44.0625 C11.295 42.4125 10.965 40.7625 10.625 39.0625 C9.57441406 39.02511719 8.52382812 38.98773438 7.44140625 38.94921875 C-1.12714401 38.57374524 -8.54551674 37.97724163 -16.375 34.0625 C-16.705 35.2175 -17.035 36.3725 -17.375 37.5625 C-19.85499573 45.08675888 -23.75413307 52.0399666 -27.375 59.0625 C-27.705 59.7225 -28.035 60.3825 -28.375 61.0625 C-29.035 61.0625 -29.695 61.0625 -30.375 61.0625 C-34.62711132 53.16263836 -38.83828736 45.25342177 -42.81640625 37.2109375 C-43.96105988 34.8986798 -45.11428523 32.59202257 -46.27734375 30.2890625 C-49.72264872 23.45926186 -53.11321937 16.6071166 -56.375 9.6875 C-56.67784912 9.05094482 -56.98069824 8.41438965 -57.29272461 7.75854492 C-59.375 3.30019113 -59.375 3.30019113 -59.375 1.0625 C-52.25841854 0.80604661 -46.34114229 2.0511595 -40.375 6.0625 C-36.06483535 11.60660411 -33.69805226 18.47067581 -31.29296875 25 C-30.55999869 27.23470912 -30.55999869 27.23470912 -28.375 28.0625 C-28.23191406 27.28326172 -28.23191406 27.28326172 -28.0859375 26.48828125 C-27.12380411 23.20539755 -25.56620297 20.27561937 -24 17.25 C-23.38596119 16.05704748 -22.77397655 14.86303537 -22.1640625 13.66796875 C-21.86274414 13.07806152 -21.56142578 12.4881543 -21.25097656 11.88037109 C-20.35799748 10.02721552 -19.59529136 8.14953631 -18.8359375 6.23828125 C-17.375 3.0625 -17.375 3.0625 -14.375 1.0625 C-9.57502127 -0.05655663 -4.89514947 -0.05753792 0 0 Z " fill="#302C2E" transform="translate(71.375,35.9375)"/>
<path d="M0 0 C1.18807993 2.37615986 1.12914522 3.8511742 1.1328125 6.5 C1.13474609 7.8303125 1.13474609 7.8303125 1.13671875 9.1875 C1.13285156 10.115625 1.12898438 11.04375 1.125 12 C1.13080078 13.3921875 1.13080078 13.3921875 1.13671875 14.8125 C1.13542969 15.699375 1.13414063 16.58625 1.1328125 17.5 C1.13168457 18.3146875 1.13055664 19.129375 1.12939453 19.96875 C1 22 1 22 0 24 C-0.66 24 -1.32 24 -2 24 C-2.309375 24.8353125 -2.309375 24.8353125 -2.625 25.6875 C-4.57683032 28.97012371 -6.94230994 30.70673246 -10 33 C-10.66 33 -11.32 33 -12 33 C-13.1482685 30.703463 -13.11561175 29.41686833 -13.09765625 26.8671875 C-13.09515869 26.14128418 -13.09266113 25.41538086 -13.09008789 24.66748047 C-13.08098389 23.74596191 -13.07187988 22.82444336 -13.0625 21.875 C-13.041875 18.94625 -13.02125 16.0175 -13 13 C-19.27 13 -25.54 13 -32 13 C-30.75416343 8.01665373 -29.0361626 5.4756686 -25.4296875 1.86328125 C-17.91292268 -2.22042811 -8.3051483 -0.63204264 0 0 Z " fill="#03BC62" transform="translate(114,15)"/>
<path d="M0 0 C1.18807993 2.37615986 1.12914522 3.8511742 1.1328125 6.5 C1.13474609 7.8303125 1.13474609 7.8303125 1.13671875 9.1875 C1.13285156 10.115625 1.12898438 11.04375 1.125 12 C1.13080078 13.3921875 1.13080078 13.3921875 1.13671875 14.8125 C1.13542969 15.699375 1.13414063 16.58625 1.1328125 17.5 C1.13168457 18.3146875 1.13055664 19.129375 1.12939453 19.96875 C1 22 1 22 0 24 C-0.66 24 -1.32 24 -2 24 C-2.309375 24.8353125 -2.309375 24.8353125 -2.625 25.6875 C-4.57683032 28.97012371 -6.94230994 30.70673246 -10 33 C-10.66 33 -11.32 33 -12 33 C-13.1482685 30.703463 -13.11561175 29.41686833 -13.09765625 26.8671875 C-13.09515869 26.14128418 -13.09266113 25.41538086 -13.09008789 24.66748047 C-13.08098389 23.74596191 -13.07187988 22.82444336 -13.0625 21.875 C-13.041875 18.94625 -13.02125 16.0175 -13 13 C-19.27 13 -25.54 13 -32 13 C-30.75416343 8.01665373 -29.0361626 5.4756686 -25.4296875 1.86328125 C-17.91292268 -2.22042811 -8.3051483 -0.63204264 0 0 Z M-23 2 C-23.33 2.99 -23.66 3.98 -24 5 C-24.99 5.66 -25.98 6.32 -27 7 C-27 8.32 -27 9.64 -27 11 C-26.01257813 11.06058594 -25.02515625 11.12117188 -24.0078125 11.18359375 C-22.72648437 11.26738281 -21.44515625 11.35117187 -20.125 11.4375 C-18.84882812 11.51871094 -17.57265625 11.59992187 -16.2578125 11.68359375 C-13 12 -13 12 -11 13 C-10.68758629 15.54941373 -10.48696579 18.00361513 -10.375 20.5625 C-10.33632812 21.27341797 -10.29765625 21.98433594 -10.2578125 22.71679688 C-10.16328217 24.47742425 -10.08054183 26.23867728 -10 28 C-9.34 28 -8.68 28 -8 28 C-8 27.34 -8 26.68 -8 26 C-7.01 26 -6.02 26 -5 26 C-2.86141406 24.43445625 -2.0904519 23.55366936 -1.65942383 20.9152832 C-1.67513428 20.13499756 -1.69084473 19.35471191 -1.70703125 18.55078125 C-1.71669922 17.70322266 -1.72636719 16.85566406 -1.73632812 15.98242188 C-1.76146484 15.10134766 -1.78660156 14.22027344 -1.8125 13.3125 C-1.82603516 12.41982422 -1.83957031 11.52714844 -1.85351562 10.60742188 C-1.88885921 8.40433834 -1.93819507 6.20247418 -2 4 C-6.41029783 1.79050168 -10.48940324 1.7629352 -15.3125 1.875 C-16.42334961 1.88853516 -16.42334961 1.88853516 -17.55664062 1.90234375 C-19.37123467 1.92575787 -21.18566071 1.96162385 -23 2 Z " fill="#33AC76" transform="translate(114,15)"/>
<path d="M0 0 C2.48405436 2.23564893 2.93906627 3.64201436 3.5 6.9375 C2.81810427 11.11411135 1.36996335 12.50915752 -2 15 C-5.65126535 15.67064058 -7.23686002 15.48198314 -10.375 13.5 C-12.78890515 9.78629977 -12.41861083 7.39541369 -12 3 C-10 0 -10 0 -8.25 -0.75 C-5.23328498 -1.08519056 -2.92873234 -0.8100749 0 0 Z " fill="#373435" transform="translate(92,37)"/>
<path d="M0 0 C0.33 0.99 0.66 1.98 1 3 C0.01 3.66 -0.98 4.32 -2 5 C-2.72382467 7.05925139 -2.72382467 7.05925139 -3 9 C-2.01257813 8.98839844 -1.02515625 8.97679687 -0.0078125 8.96484375 C1.27351563 8.95582031 2.55484375 8.94679688 3.875 8.9375 C5.15117188 8.92589844 6.42734375 8.91429687 7.7421875 8.90234375 C11 9 11 9 13 10 C13 15.94 13 21.88 13 28 C13.99 28.33 14.98 28.66 16 29 C14.02 29.99 14.02 29.99 12 31 C10.8517315 28.703463 10.88438825 27.41686833 10.90234375 24.8671875 C10.90484131 24.14128418 10.90733887 23.41538086 10.90991211 22.66748047 C10.91901611 21.74596191 10.92812012 20.82444336 10.9375 19.875 C10.958125 16.94625 10.97875 14.0175 11 11 C4.73 11 -1.54 11 -8 11 C-6.96851752 6.87407007 -6.37713898 6.02929503 -3.4375 3.25 C-2.79683594 2.63640625 -2.15617187 2.0228125 -1.49609375 1.390625 C-1.00238281 0.93171875 -0.50867188 0.4728125 0 0 Z " fill="#3EB481" transform="translate(90,17)"/>
<path d="M0 0 C0.66 0.33 1.32 0.66 2 1 C1.67 1.66 1.34 2.32 1 3 C1.99 3 2.98 3 4 3 C3.125 9.75 3.125 9.75 2 12 C1.34 12 0.68 12 0 12 C-2.67927341 7.98108988 -2.15601248 5.75838077 -2 1 C-1.34 0.67 -0.68 0.34 0 0 Z " fill="#1F1E1E" transform="translate(41,85)"/>
<path d="M0 0 C0.66 0 1.32 0 2 0 C2 5.94 2 11.88 2 18 C2.99 18.33 3.98 18.66 5 19 C3.02 19.99 3.02 19.99 1 21 C-0.17426264 18.65147472 -0.11508173 17.26225935 -0.09765625 14.6484375 C-0.09443359 13.79765625 -0.09121094 12.946875 -0.08789062 12.0703125 C-0.07951172 11.18085937 -0.07113281 10.29140625 -0.0625 9.375 C-0.05798828 8.4778125 -0.05347656 7.580625 -0.04882812 6.65625 C-0.03702591 4.43743352 -0.02056155 2.21874982 0 0 Z " fill="#72C6A2" transform="translate(101,27)"/>
<path d="M0 0 C7.26 0 14.52 0 22 0 C21.67 0.99 21.34 1.98 21 3 C13.74 2.67 6.48 2.34 -1 2 C-0.67 1.34 -0.34 0.68 0 0 Z " fill="#63BE97" transform="translate(92,15)"/>
<path d="M0 0 C5.53846154 -0.36923077 5.53846154 -0.36923077 7.875 1.5 C8.24625 1.995 8.6175 2.49 9 3 C4.375 5.125 4.375 5.125 1 4 C0.3125 1.9375 0.3125 1.9375 0 0 Z " fill="#3F3D3E" transform="translate(12,37)"/>
<path d="M0 0 C0.33 0 0.66 0 1 0 C1 4.95 1 9.9 1 15 C1.66 15 2.32 15 3 15 C3 14.34 3 13.68 3 13 C3.99 13 4.98 13 6 13 C5.34 14.32 4.68 15.64 4 17 C2.68 17 1.36 17 0 17 C0 11.39 0 5.78 0 0 Z " fill="#1EAA69" transform="translate(103,28)"/>
<path d="M0 0 C2 0 4 0 6 0 C5.34 1.98 4.68 3.96 4 6 C3.34 6 2.68 6 2 6 C0 3 0 3 0 0 Z " fill="#6A6A6A" transform="translate(39,91)"/>
<path d="M0 0 C3.875 1.875 3.875 1.875 5 3 C5.04063832 4.66617115 5.042721 6.33388095 5 8 C2.20127563 5.47211993 0.54226981 3.79588866 0 0 Z " fill="#5F5E5F" transform="translate(25,65)"/>
<path d="M0 0 C0.66 0 1.32 0 2 0 C2.33 1.65 2.66 3.3 3 5 C1.35 5 -0.3 5 -2 5 C-1.125 1.125 -1.125 1.125 0 0 Z " fill="#221D1F" transform="translate(78,68)"/>
</svg>
